<?xml version="1.0" encoding="UTF-8" standalone="no"?>
<!-- Created with Inkscape (http://www.inkscape.org/) -->

<svg
   xmlns:dc="http://purl.org/dc/elements/1.1/"
   xmlns:cc="http://creativecommons.org/ns#"
   xmlns:rdf="http://www.w3.org/1999/02/22-rdf-syntax-ns#"
   xmlns:svg="http://www.w3.org/2000/svg"
   xmlns="http://www.w3.org/2000/svg"
   xmlns:sodipodi="http://sodipodi.sourceforge.net/DTD/sodipodi-0.dtd"
   xmlns:inkscape="http://www.inkscape.org/namespaces/inkscape"
   width="550"
   height="550"
   id="svg2"
   version="1.1"
   inkscape:version="0.48.2 r9819"
   inkscape:export-filename="/home/micha/Develop/getmewheels2/qml/getmewheels2/images/fuel_red.png"
   inkscape:export-xdpi="7.8499999"
   inkscape:export-ydpi="7.8499999"
   sodipodi:docname="fuel_red.svg">
  <defs
     id="defs4">
    <inkscape:perspective
       sodipodi:type="inkscape:persp3d"
       inkscape:vp_x="0 : 526.18109 : 1"
       inkscape:vp_y="0 : 1000 : 0"
       inkscape:vp_z="744.09448 : 526.18109 : 1"
       inkscape:persp3d-origin="372.04724 : 350.78739 : 1"
       id="perspective10" />
    <inkscape:perspective
       id="perspective2884"
       inkscape:persp3d-origin="0.5 : 0.33333333 : 1"
       inkscape:vp_z="1 : 0.5 : 1"
       inkscape:vp_y="0 : 1000 : 0"
       inkscape:vp_x="0 : 0.5 : 1"
       sodipodi:type="inkscape:persp3d" />
  </defs>
  <sodipodi:namedview
     id="base"
     pagecolor="#ffffff"
     bordercolor="#666666"
     borderopacity="1.0"
     inkscape:pageopacity="0.0"
     inkscape:pageshadow="2"
     inkscape:zoom="0.7"
     inkscape:cx="141.3974"
     inkscape:cy="329.70918"
     inkscape:document-units="px"
     inkscape:current-layer="layer1"
     showgrid="true"
     inkscape:window-width="1440"
     inkscape:window-height="857"
     inkscape:window-x="-2"
     inkscape:window-y="20"
     inkscape:window-maximized="1">
    <inkscape:grid
       type="xygrid"
       id="grid2890"
       empspacing="5"
       visible="true"
       enabled="true"
       snapvisiblegridlinesonly="true" />
  </sodipodi:namedview>
  <metadata
     id="metadata7">
    <rdf:RDF>
      <cc:Work
         rdf:about="">
        <dc:format>image/svg+xml</dc:format>
        <dc:type
           rdf:resource="http://purl.org/dc/dcmitype/StillImage" />
        <dc:title></dc:title>
      </cc:Work>
    </rdf:RDF>
  </metadata>
  <g
     inkscape:label="Layer 1"
     inkscape:groupmode="layer"
     id="layer1"
     transform="translate(-60,-337.36218)">
    <path
       style="fill:#ff0000;fill-opacity:1;stroke:#969696;stroke-width:0;stroke-linecap:round;stroke-linejoin:round;stroke-miterlimit:4;stroke-opacity:1;stroke-dashoffset:0"
       d="m 125,828.36218 c 0,0 30,0 30,-45 45,-35 260,-220 260,-220 0,0 0,174.02197 0,220 0,45 30,45 30,45 l 0,45 -320,0 0,-45 z"
       id="rect2904"
       sodipodi:nodetypes="ccczcccc" />
    <path
       style="fill:#ff0000;fill-opacity:1;stroke:#969696;stroke-width:0;stroke-linecap:round;stroke-linejoin:round;stroke-miterlimit:4;stroke-opacity:1;stroke-dashoffset:0"
       d="m 155,383.36218 c 0,-20 10,-30 30,-30 20.91473,0 179.59645,0 200,0 20,0 30,9.59044 30,30 0,20 0,90 0,90 l -30,25 0,-115 -200,0 0,170 135,0 -165,135 c 0,0 0,-284.54568 0,-305 z"
       id="rect2907"
       sodipodi:nodetypes="czzzcccccccz" />
    <path
       style="fill:#ff0000;fill-opacity:1;stroke:#969696;stroke-width:0;stroke-linecap:round;stroke-linejoin:round;stroke-miterlimit:4;stroke-opacity:1;stroke-dashoffset:0"
       d="m 60,778.36218 520,-430 30,40 -520,440 -30,-50 z"
       id="rect2910"
       sodipodi:nodetypes="ccccc" />
    <path
       style="fill:#ff0000;fill-opacity:1;stroke:#969696;stroke-width:0;stroke-linecap:round;stroke-linejoin:round;stroke-miterlimit:4;stroke-opacity:1;stroke-dashoffset:0"
       d="m 580,658.36218 c 10.49673,73.47708 30,170 -80,170 -110,0 5,-230 -85,-230 0,-17.25889 0,-20 0,-35 135,-35 20,230 95,230 57.5,0 48.99352,-64.02593 30,-140 -25,-100 -5,-154.99999 -20,-180 15.46875,-11.01284 32.5,-27.5 40,-35 20,30 20,30 30,70 -50,30 -20,80 -10,150 z"
       id="path2913"
       sodipodi:nodetypes="csccsscccz" />
    <path
       style="fill:#ff0000;fill-opacity:1;stroke:#969696;stroke-width:0;stroke-linecap:round;stroke-linejoin:round;stroke-miterlimit:4;stroke-opacity:1;stroke-dashoffset:0"
       d="m 450,368.36218 25,-15 40,40 -25,20 -40,-45 z"
       id="rect2916"
       sodipodi:nodetypes="ccccc" />
  </g>
</svg>
