<?xml version="1.0" encoding="UTF-8" standalone="no"?>
<!-- Created with Inkscape (http://www.inkscape.org/) -->

<svg
   xmlns:dc="http://purl.org/dc/elements/1.1/"
   xmlns:cc="http://creativecommons.org/ns#"
   xmlns:rdf="http://www.w3.org/1999/02/22-rdf-syntax-ns#"
   xmlns:svg="http://www.w3.org/2000/svg"
   xmlns="http://www.w3.org/2000/svg"
   version="1.1"
   width="64"
   height="64"
   id="svg3650">
  <defs
     id="defs3652" />
  <metadata
     id="metadata3655">
    <rdf:RDF>
      <cc:Work
         rdf:about="">
        <dc:format>image/svg+xml</dc:format>
        <dc:type
           rdf:resource="http://purl.org/dc/dcmitype/StillImage" />
        <dc:title></dc:title>
      </cc:Work>
    </rdf:RDF>
  </metadata>
  <g
     transform="translate(-157.53616,-537.9756)"
     id="layer1">
    <g
       transform="translate(3.8218747,-13.815154)"
       id="g3773">
      <path
         d="m 177.43232,567.92069 c -4.40885,0.0297 -10.51785,0.64614 -11.20412,0.82439 -0.38722,0.35821 -0.63181,0.99897 -0.74944,1.31152 0.11284,0.19547 0.81514,-0.10888 0.6745,0.11241 -1.74717,2.749 -1.73023,3.02049 -2.51063,4.57159 -0.55606,1.10522 -1.23299,2.17301 -1.53635,3.37248 -0.43533,1.72128 -0.37472,5.32102 -0.37472,5.32102 0,0 -0.75819,0.55449 -1.01174,0.9368 -0.29391,0.44315 -0.44889,0.97931 -0.56208,1.49888 -0.3768,1.72955 -0.33725,5.28355 -0.33725,5.28355 l 0.52461,1.42394 c 0.28527,-10.20646 15.04767,-8.83009 13.04025,1.83612 6.58136,0.1272 19.40233,0.24452 24.39427,0.22091 -1.20959,-9.77642 13.10745,-10.94303 12.51564,0.26623 l 0.71197,0 c 0.45737,-1.19911 0.84191,-4.14188 0.41219,-6.14541 -0.0984,-0.45878 -0.54174,-0.78653 -0.67449,-1.23657 -0.24686,-0.83683 0.0995,-1.77561 -0.22484,-2.58557 -0.38204,-0.95409 -1.16552,-1.69083 -1.91107,-2.39821 -0.44457,-0.42181 -1.01011,-0.717 -1.49888,-1.08669 -0.67383,-0.50966 -1.25244,-1.15467 -1.98601,-1.57382 -1.11025,-0.63437 -1.88097,-1.13798 -2.88535,-1.53635 -0.3454,-0.137 -1.04921,-0.29978 -1.04921,-0.29978 0,0 -7.55058,-6.83774 -12.1784,-8.6935 -3.06679,-1.22978 -6.51625,-1.25129 -9.81766,-1.38646 -0.54035,-0.0221 -1.13135,-0.0417 -1.76119,-0.0375 z m -3.14764,1.64877 c 0,0 -1.4915,1.50591 -1.83613,2.47315 -0.81456,2.28615 -1.27317,5.18996 -0.37472,7.26957 1.48949,3.44768 3.59743,5.90665 5.77069,8.58109 0.53543,0.65891 1.04865,1.37443 1.76118,1.83612 0.70353,0.45586 1.53074,0.74407 2.36074,0.86186 5.03378,0.71437 12.51564,1.72371 12.51564,1.72371 l 0,0.48714 c 0,0 -8.8467,-0.53709 -13.93958,-1.27405 -2.87943,-0.41667 -2.72927,-1.03276 -4.23433,-2.99776 -2.64205,-3.44943 -4.77696,-6.68546 -7.04474,-10.00502 -0.46304,-0.6778 -1.0716,-1.3542 -1.12416,-2.17338 -0.0394,-0.61421 0.40136,-1.15514 0.63702,-1.72371 0.69057,-1.66608 2.32327,-4.90883 2.32327,-4.90883 z m 2.17337,0.22483 c 0.60399,-0.0585 1.34899,0.0375 1.34899,0.0375 l -0.93679,6.59507 c 0,0 -2.94914,0.15555 -3.18512,-0.82438 -0.33718,-1.40013 -0.0928,-2.75122 0.48713,-3.93456 0.36074,-0.73605 1.01103,-1.39329 1.76119,-1.72371 0.14222,-0.0626 0.32328,-0.13038 0.5246,-0.14989 z m 2.02349,0.11242 c 0,0 6.18697,0.13891 9.03075,1.1991 4.37909,1.63258 11.72874,7.68176 11.72874,7.68176 l -21.43399,-2.1359 z m -15.73824,7.90659 c 0,0 1.86025,0.4902 1.72372,1.16163 -0.12062,0.59309 -1.79866,0.33725 -1.79866,0.33725 z m -0.11241,2.73546 c 0,0 1.6262,0.0804 1.64877,0.67449 0.0245,0.64526 -1.72372,0.86186 -1.72372,0.86186 z m 43.13026,1.01174 c 0,0 1.0063,0.21664 1.42394,0.48713 0.99135,0.64208 2.43568,2.58557 2.43568,2.58557 0,0 -1.4704,-0.28488 -2.06096,-0.71197 -0.79844,-0.57741 -1.79866,-2.36073 -1.79866,-2.36073 z"
         id="path8729"
         style="opacity:0.5;fill:#000000;fill-opacity:0.90196078;stroke:none;display:inline" />
      <path
         d="m 172.86256,592.16591 c 0,3.16683 -2.62283,5.73405 -5.85825,5.73405 -3.23543,0 -5.85826,-2.56722 -5.85826,-5.73405 0,-3.16683 2.62283,-5.73405 5.85826,-5.73405 3.23542,0 5.85825,2.56722 5.85825,5.73405 z"
         id="path8727"
         style="opacity:0.5;fill:#000000;fill-opacity:0.90196078;stroke:none;display:inline" />
      <path
         d="m 209.44043,593.17502 c 0,3.11696 -2.4738,5.64375 -5.52538,5.64375 -3.05157,0 -5.52537,-2.52679 -5.52537,-5.64375 0,-3.11695 2.4738,-5.64374 5.52537,-5.64374 3.05158,0 5.52538,2.52679 5.52538,5.64374 z"
         id="path8725"
         style="opacity:0.5;fill:#000000;fill-opacity:0.90196078;stroke:none;display:inline" />
      <g
         transform="matrix(0.8974359,0,0,0.8974359,149.81542,532.25236)"
         id="g9819"
         style="opacity:0.5;display:inline">
        <path
           d="m 18.679235,63.745854 c -5.95964,1.053802 -0.31728,9.602429 3.173342,4.63475 1.555074,-2.222852 -0.730986,-5.136575 -3.173342,-4.63475 z"
           id="path9821"
           style="opacity:0.06666703;fill:#000000;fill-opacity:0.90196078;stroke:none;display:inline" />
        <path
           d="m 18.846253,63.2448 c -9.5455803,2.668221 4.703706,12.371465 3.79966,2.421761 -0.547928,-1.566157 -2.160519,-2.601812 -3.79966,-2.421761 z"
           id="path9825"
           style="opacity:0.06666703;fill:#000000;fill-opacity:0.90196078;stroke:none;display:inline" />
        <path
           d="m 18.804498,62.7855 c -6.913826,0.462652 -2.759494,11.200547 2.755797,7.22353 3.484405,-2.266052 1.233752,-7.73054 -2.755797,-7.22353 z"
           id="path9829"
           style="opacity:0.06666703;fill:#000000;fill-opacity:0.90196078;stroke:none;display:inline" />
        <path
           d="m 18.345199,62.326201 c -6.183013,0.866843 -3.868622,10.456312 1.878952,8.810201 5.893583,-1.458046 3.736409,-9.794381 -1.878952,-8.810201 z"
           id="path9833"
           style="opacity:0.06666703;fill:#000000;fill-opacity:0.90196078;stroke:none;display:inline" />
        <path
           d="m 18.679235,61.825147 c -6.635427,0.235157 -5.515784,10.991007 1.043862,9.854063 6.591503,-0.751493 5.613957,-10.367609 -1.043862,-9.854063 z"
           id="path9837"
           style="opacity:0.06666703;fill:#000000;fill-opacity:0.90196078;stroke:none;display:inline" />
        <path
           d="m 18.595726,61.365847 c -6.361021,0.113466 -6.559219,10.560518 0,10.772663 6.1637,1.130229 8.447698,-8.504318 2.755797,-10.355118 -0.863346,-0.362933 -1.821819,-0.537587 -2.755797,-0.417545 z"
           id="path9841"
           style="opacity:0.06666703;fill:#000000;fill-opacity:0.90196078;stroke:none;display:inline" />
        <path
           d="m 18.553971,60.864793 c -4.826718,0.190275 -7.383749,6.855152 -3.674397,10.062836 3.486396,3.784452 10.608834,0.888782 10.355118,-4.217205 -0.03884,-3.409201 -3.243706,-6.263547 -6.680721,-5.845631 z"
           id="path9845"
           style="opacity:0.06666703;fill:#000000;fill-opacity:0.90196078;stroke:none;display:inline" />
        <path
           d="m 30.521602,46.975212 c 0,2.640997 -2.187326,4.781948 -4.885528,4.781948 -2.698202,0 -4.885528,-2.140951 -4.885528,-4.781948 0,-2.640997 2.187326,-4.781948 4.885528,-4.781948 2.698202,0 4.885528,2.140951 4.885528,4.781948 z"
           transform="matrix(1.3361442,0,0,1.3361442,-15.100161,3.9951556)"
           id="path9849"
           style="opacity:0.06666703;fill:#000000;fill-opacity:0.90196078;stroke:none;display:inline" />
        <path
           d="m 18.428708,59.946194 c -5.363615,0.183191 -8.298512,7.439883 -4.634751,11.231962 3.585215,4.603827 12.044911,2.160555 12.31758,-3.716151 0.582262,-4.269129 -3.448948,-8.079341 -7.682829,-7.515811 z"
           id="path9851"
           style="opacity:0.06666703;fill:#000000;fill-opacity:0.90196078;stroke:none;display:inline" />
        <path
           d="M 18.428708,59.44514 C 11.31739,59.648251 9.1465231,70.40374 15.67291,73.265881 21.96095,77.029458 30.00924,68.64753 25.318201,62.618482 23.85037,60.430573 21.096385,59.158938 18.428708,59.44514 z"
           id="path9855"
           style="opacity:0.06666703;fill:#000000;fill-opacity:0.90196078;stroke:none;display:inline" />
        <path
           d="m 18.386953,58.98584 c -8.405146,0.222037 -9.6966737,13.4198 -1.544917,15.240395 7.806315,2.892251 14.234086,-8.566734 7.348793,-13.52846 -1.613065,-1.300531 -3.731034,-1.935047 -5.803876,-1.711935 z"
           id="path9859"
           style="opacity:0.06666703;fill:#000000;fill-opacity:0.90196078;stroke:none;display:inline" />
        <path
           d="M 18.345199,58.484786 C 9.8911229,58.746244 7.8906291,71.841627 16.006946,74.435008 23.930387,78.24514 31.852784,66.690228 25.067674,60.823039 23.300069,59.125872 20.791779,58.255973 18.345199,58.484786 z"
           id="path9863"
           style="opacity:0.06666703;fill:#000000;fill-opacity:0.90196078;stroke:none;display:inline" />
        <path
           d="m 18.303444,58.025487 c -8.9873335,0.271091 -11.0115411,14.114464 -2.463516,16.86882 8.400824,3.972511 16.771298,-8.252596 9.520028,-14.405304 -1.820462,-1.828055 -4.497255,-2.725642 -7.056512,-2.463516 z"
           id="path9867"
           style="opacity:0.06666703;fill:#000000;fill-opacity:0.90196078;stroke:none;display:inline" />
        <path
           d="M 18.971516,57.524433 C 9.5766186,57.059881 6.2528957,71.356065 14.921329,75.019571 23.366477,79.874535 33.193968,67.961663 26.320309,60.781284 24.547223,58.65337 21.725273,57.428853 18.971516,57.524433 z"
           id="path9871"
           style="opacity:0.06666703;fill:#000000;fill-opacity:0.90196078;stroke:none;display:inline" />
        <path
           d="M 18.261689,57.065133 C 8.7547443,57.332419 5.926449,71.683423 14.712556,75.47887 23.174048,80.27283 33.448097,68.968925 27.238908,61.198829 25.288222,58.320338 21.703461,56.747636 18.261689,57.065133 z"
           id="path9875"
           style="opacity:0.06666703;fill:#000000;fill-opacity:0.90196078;stroke:none;display:inline" />
      </g>
      <g
         transform="matrix(0.8974359,0,0,0.8974359,149.81542,532.25236)"
         id="g9880"
         style="opacity:0.5;display:inline">
        <path
           d="m 59.874853,65.029021 c -5.32587,1.08783 -0.199472,8.942903 2.71211,4.407179 1.3149,-1.922661 -0.352654,-4.819461 -2.71211,-4.407179 z"
           id="path9882"
           style="opacity:0.06666703;fill:#000000;fill-opacity:0.90196078;stroke:none;display:inline" />
        <path
           d="m 60.04436,64.520501 c -5.677131,0.507102 -2.028117,9.817093 2.457849,5.890363 2.161609,-2.032896 0.64817,-6.207997 -2.457849,-5.890363 z"
           id="path9886"
           style="opacity:0.06666703;fill:#000000;fill-opacity:0.90196078;stroke:none;display:inline" />
        <path
           d="m 60.001983,64.054357 c -5.82477,0.273574 -3.282267,10.022512 1.906952,7.288795 3.64109,-1.66011 2.18254,-7.741957 -1.906952,-7.288795 z"
           id="path9890"
           style="opacity:0.06666703;fill:#000000;fill-opacity:0.90196078;stroke:none;display:inline" />
        <path
           d="m 59.578216,63.588213 c -9.821563,3.047305 3.853036,14.797397 4.915699,4.152918 -0.0076,-2.534914 -2.451884,-4.618985 -4.915699,-4.152918 z"
           id="path9894"
           style="opacity:0.06666703;fill:#000000;fill-opacity:0.90196078;stroke:none;display:inline" />
        <path
           d="m 59.874853,63.079692 c -7.208042,0.403143 -4.162299,12.256347 2.288343,9.238124 4.851601,-2.12693 2.936467,-9.779763 -2.288343,-9.238124 z"
           id="path9898"
           style="opacity:0.06666703;fill:#000000;fill-opacity:0.90196078;stroke:none;display:inline" />
        <path
           d="M 59.7901,62.613549 C 53.318576,62.923461 53.93938,73.665442 60.383374,73.207727 67.357464,73.001421 66.949758,62.06431 59.7901,62.613549 z"
           id="path9902"
           style="opacity:0.06666703;fill:#000000;fill-opacity:0.90196078;stroke:none;display:inline" />
        <path
           d="m 59.747723,62.105028 c -4.955815,0.274011 -6.975246,7.320733 -3.051124,10.297542 3.659418,3.363624 9.969456,-0.281666 9.238124,-5.085206 -0.27096,-3.073694 -3.077703,-5.552227 -6.187,-5.212336 z"
           id="path9906"
           style="opacity:0.06666703;fill:#000000;fill-opacity:0.90196078;stroke:none;display:inline" />
        <path
           d="m 61.215836,47.637531 c 0,2.561238 -2.032744,4.637531 -4.540261,4.637531 -2.507517,0 -4.540261,-2.076293 -4.540261,-4.637531 0,-2.561237 2.032744,-4.637531 4.540261,-4.637531 2.507517,0 4.540261,2.076294 4.540261,4.637531 z"
           transform="matrix(1.3560549,0,0,1.3560549,-16.572742,3.2861467)"
           id="path9910"
           style="opacity:0.06666703;fill:#000000;fill-opacity:0.90196078;stroke:none;display:inline" />
        <path
           d="m 59.620593,61.17274 c -5.750176,0.272818 -8.090224,8.50602 -3.559644,11.950234 4.041717,3.730049 11.230819,0.152057 10.848439,-5.297089 0.05304,-3.819983 -3.437572,-7.159605 -7.288795,-6.653145 z"
           id="path9912"
           style="opacity:0.06666703;fill:#000000;fill-opacity:0.90196078;stroke:none;display:inline" />
        <path
           d="M 59.578216,60.66422 C 51.985054,61.049762 50.938591,72.987652 58.179784,74.818043 65.41301,77.462287 70.831908,66.746236 64.790552,62.274535 63.39149,61.056681 61.430751,60.479528 59.578216,60.66422 z"
           id="path9916"
           style="opacity:0.06666703;fill:#000000;fill-opacity:0.90196078;stroke:none;display:inline" />
        <path
           d="m 59.578216,60.198076 c -8.548628,0.331093 -9.165087,14.063343 -0.762781,15.297994 8.34894,2.037688 12.650197,-10.923604 5.000453,-14.45046 -1.288391,-0.705215 -2.75524,-1.007397 -4.237672,-0.847534 z"
           id="path9920"
           style="opacity:0.06666703;fill:#000000;fill-opacity:0.90196078;stroke:none;display:inline" />
        <path
           d="m 59.535839,59.689555 c -8.938811,0.408109 -9.825903,14.619484 -1.059418,16.230282 8.484764,2.379308 13.755953,-10.540819 6.229378,-14.916604 -1.501563,-1.011032 -3.365757,-1.470925 -5.16996,-1.313678 z"
           id="path9924"
           style="opacity:0.06666703;fill:#000000;fill-opacity:0.90196078;stroke:none;display:inline" />
        <path
           d="m 59.493463,59.223411 c -9.129591,0.37711 -10.52303,14.725181 -1.737446,16.993063 8.618899,3.163244 15.259019,-9.66717 7.966823,-15.043734 -1.67471,-1.45486 -4.017823,-2.184054 -6.229377,-1.949329 z"
           id="path9928"
           style="opacity:0.06666703;fill:#000000;fill-opacity:0.90196078;stroke:none;display:inline" />
        <path
           d="m 60.086737,58.714891 c -9.554752,-0.31181 -12.163684,14.497375 -3.263008,17.67109 8.823162,4.203033 17.011605,-8.786052 9.746645,-15.128487 -1.695071,-1.671121 -4.104972,-2.625873 -6.483637,-2.542603 z"
           id="path9932"
           style="opacity:0.06666703;fill:#000000;fill-opacity:0.90196078;stroke:none;display:inline" />
        <path
           d="M 59.451086,58.248747 C 49.319399,58.593506 47.633557,74.518931 57.374627,77.106385 66.579324,80.638893 74.272398,67.287951 66.909388,60.91848 64.979646,58.981711 62.165441,57.994053 59.451086,58.248747 z"
           id="path9936"
           style="opacity:0.06666703;fill:#000000;fill-opacity:0.90196078;stroke:none;display:inline" />
      </g>
      <g
         transform="matrix(0.8974359,0,0,0.8974359,149.81542,532.25236)"
         id="g9940"
         style="opacity:0.5;display:inline">
        <path
           d="m 18.9375,45.875 c -1.328839,0.960822 -1.785803,5.79391 -0.96875,2.6875 -0.173532,-0.791237 1.592863,-3.461025 0.96875,-2.6875 z m 8.40625,6.15625 c 2.99908,4.772817 5.910186,12.029299 12.868219,11.050273 C 43.781926,62.521338 49.834678,66.421277 52,63.40625 53.709074,59.887689 57.997127,57.918722 61.6875,58.4375 59.352631,52.453979 52.061058,54.841178 46.851791,53.551847 40.285954,52.762814 33.565923,52.479733 27.09375,51.4375 l 0.25,0.59375 z m -8.5625,0.5 c -0.122138,1.44843 -0.44101,3.945732 -1.21875,4.53125 1.986707,-0.917601 7.235685,2.091738 3.9375,-1.34375 -0.615948,-0.112349 -2.425819,-4.615612 -2.71875,-3.1875 z M 28.96875,66.5 c 1.417775,1.9799 -0.261087,-1.353999 0,0 z"
           id="path9942"
           style="opacity:0.06666703;fill:#000000;fill-opacity:0.90196078;stroke:none;display:inline" />
        <path
           d="M 20.375,42.53125 C 19.7438,45.349338 14.919195,48.688382 18.28125,51 c 0.07603,2.255802 0.536024,6.050664 -2.84375,6.4375 1.198171,0.699283 5.294415,-0.945893 7.5,0.6875 2.189456,0.805541 -3.221193,-4.897179 -3.90625,-6.625 -2.604731,-2.930783 2.213297,-7.313137 1.34375,-8.96875 z m 6.1875,8.4375 c 2.200174,4.407067 4.706206,9.537354 9.125,11.84375 5.225206,0.261546 11.688612,2.463779 16.21875,1.625 1.4663,-4.313624 6.915396,-6.481823 10.71875,-5.5 -2.194221,-2.71171 -3.510834,-5.890049 -7.78125,-4.96875 -9.375683,-1.095303 -19.073992,-1.595233 -28.28125,-3 z m 39.0625,9.4375 c 0.176769,-0.145075 -0.411189,-0.119129 0,0 z M 28.375,64.875 c -0.890784,2.03493 3.294683,3.299988 1.4375,1.65625 C 29.241398,66.062809 28.5771,65.049942 28.375,64.875 z"
           id="path9946"
           style="opacity:0.06666703;fill:#000000;fill-opacity:0.90196078;stroke:none;display:inline" />
        <path
           d="M 20.09375,42.21875 C 19.720092,44.513783 15.483929,48.112526 17,50 c 1.804301,1.580519 0.977386,4.333124 0.1875,6.1875 -1.661489,0.866197 -2.964398,1.694017 -3.78125,3.40625 3.426155,-2.724182 8.733517,-2.487037 11.9375,0.46875 -1.760945,-4.308836 -8.30328,-8.008723 -6.0625,-13.125 -0.0968,-1.161934 4.394918,-6.312531 0.8125,-4.71875 z m 6,8.125 c 1.657634,4.772428 5.006059,10.215583 9.34375,12.78125 5.299897,0.756131 10.766212,1.467466 16.125,2.25 -0.08579,4.924811 0.03337,-0.449105 1.15625,-1.78125 C 55.039071,58.584132 62.450782,57.99801 66,60.96875 65.798094,59.09785 61.986843,59.434477 61.46875,56.9375 59.002996,51.249528 50.891997,54.457871 45.919202,52.734109 39.386177,51.725028 32.30814,52.050497 26.09375,50.34375 z M 27.375,62.875 c 1.303491,2.227233 -0.155884,6.06705 3.874331,4.688366 C 34.170667,67.951879 28.760065,66.41642 28.59375,64.5 28.512015,64.339265 27.125886,62.43782 27.375,62.875 z"
           id="path9950"
           style="opacity:0.06666703;fill:#000000;fill-opacity:0.90196078;stroke:none;display:inline" />
        <path
           d="m 21.375,41.71875 c -3.12276,-0.04072 -3.287234,5.086677 -5.1875,7.21875 -0.254317,1.244935 2.823221,2.888394 1.09375,4.71875 1.368976,3.036236 -3.34553,2.728686 -3.5625,4.84375 -0.967296,0.837026 -1.358756,3.204894 0.21875,1.1875 5.810605,-4.602501 15.125501,0.853845 13.9375,8.15625 2.611846,-0.0153 14.64319,0.452912 7.28125,-0.25 C 28.214213,67.707875 26.38022,59.313723 22.375,55.125 19.664856,52.324535 17.702072,48.345316 20.5625,44.96875 c -0.206581,-0.63739 2.884169,-3.973476 0.8125,-3.25 z m 4.34375,8.21875 c 1.155805,5.183921 5.045478,10.009319 8.9375,13.28125 5.388481,1.267759 11.078269,1.533026 16.5625,2.46875 -0.146704,3.794644 0.991528,1.736674 1.25,-0.625 1.691466,-6.0021 10.528322,-7.484453 14.1875,-2.78125 C 66.59674,60.154773 66.032671,59.326394 63.84375,58.9375 61.537657,57.71956 61.267709,54.43672 59.03125,53.25 56.023562,53.903572 47.215401,52.213917 41.970098,51.963158 36.683512,51.170846 30.419946,51.346128 25.71875,49.9375 z"
           id="path9954"
           style="opacity:0.06666703;fill:#000000;fill-opacity:0.90196078;stroke:none;display:inline" />
        <path
           d="m 32.40625,40.875 c 8.414084,-0.611255 15.74219,3.84535 21.9375,9.03125 C 48.450398,44.478998 41.129025,39.935582 32.6875,40.84375 32.029551,40.8031 29.936089,40.78054 32.40625,40.875 z m -11,0.46875 c -3.507393,0.15906 -4.112549,5.934624 -6.0625,8.59375 2.079998,0.238755 2.358753,2.715715 1.34375,3.5625 1.88873,2.937681 -3.396819,2.756596 -3.5625,5.0625 -0.784057,1.222455 -1.328858,4.568734 0.3125,1.9375 5.385763,-5.166297 15.267902,-0.180556 14.09375,7.28125 5.791424,1.136301 13.721103,0.303761 20.34375,0.65625 C 42.191312,67.081716 34.858432,69.116268 30.0625,65.28125 26.648657,59.860071 21.464094,55.025757 19.34375,49 c 0.626473,-2.703924 2.320619,-5.173697 3.4375,-7.75 l -0.997684,0.06802 -0.377316,0.02573 z m 4,6.71875 c -0.384498,6.15451 4.828694,11.276307 8.8125,15.34375 5.34671,1.560016 11.140354,1.520995 16.625,2.59375 -0.354716,3.9497 2.00927,2.193961 1.8125,-0.46875 1.675234,-7.133445 12.997108,-7.648326 15.125,-0.5625 C 67.635615,63.058797 66.610158,60.998035 66.375,59.40625 61.60547,59.260431 61.63777,52.509406 57.09375,52.125 58.173699,54.449876 46.195017,51.441066 42.032598,51.619408 36.626155,50.312915 30.455965,51.842581 25.78125,49.09375 25.524675,49.03817 25.46211,47.49184 25.40625,48.0625 z"
           id="path9958"
           style="opacity:0.06666703;fill:#000000;fill-opacity:0.90196078;stroke:none;display:inline" />
        <path
           d="m 28.875,40.5 c -3.419491,0.243456 -7.009017,0.234846 -10.3125,0.9375 1.230123,1.580165 -2.319301,4.244656 -2.53125,6.25 -1.082005,1.597624 -1.727729,2.65648 0.34375,3.1875 1.898676,0.987588 -0.654802,2.783468 -1,2.375 2.31792,0.217332 1.357497,3.229905 -0.75,2.90625 -0.677492,0.678944 -1.552659,1.844652 -2.21875,3.03125 -0.325789,1.138862 -1.043529,5.503406 0.15625,2.90625 3.708173,-5.902145 14.02269,-3.385482 14.53125,3.5625 -0.88977,3.962148 2.756431,2.885624 5.713517,2.999914 6.530443,-0.128599 13.735032,0.480501 19.848983,-0.124914 -0.846477,-6.5317 7.77933,-11.013758 12.5625,-6.625 C 66.788895,63.214099 67.753423,65.250401 68,67.3125 68.97704,64.33389 66.74197,62.079973 67.03125,59.21875 63.773124,59.11189 62.047104,56.257072 60.75,53.65625 62.981121,54.377201 57.907658,51.732098 56.78125,51.5625 50.40877,45.926672 43.237741,39.739483 34.072869,40.560859 32.341285,40.448556 30.608738,40.453189 28.875,40.5 z m -0.65625,1.15625 c 3.653435,-1.381539 8.001092,0.1263 11.875,0.375 6.627907,1.653191 11.884692,6.680244 17.25,10.75 C 47.153877,51.542561 36.501701,51.211107 26.6875,49.40625 24.690899,48.312381 26.277773,44.425888 26.25,43.875 c -3.294928,5.739583 0.372926,11.822607 4.201019,16.022633 1.931727,4.098259 6.251389,4.976613 10.408653,5.0645 2.573562,0.832819 11.575766,0.15953 8.926662,3.226881 C 43.605861,67.365433 36.84554,68.104503 31.0625,65.75 27.038455,60.777537 22.868473,55.223951 19.78125,49.59375 19.80292,46.544384 22.282894,43.917224 23.25,41.0625 c 1.008616,0.331451 7.514871,-1.230909 4.96875,0.59375 z"
           id="path9962"
           style="opacity:0.06666703;fill:#000000;fill-opacity:0.90196078;stroke:none;display:inline" />
        <path
           d="m 28.875,40.125 c -3.49177,0.22741 -7.099267,0.272023 -10.5,0.9375 -1.041806,1.002564 1.059459,0.826302 -0.227233,1.977615 -1.500269,2.317416 -2.652644,4.852858 -3.835267,7.334885 0.969666,0.0748 3.286157,1.194645 1.9375,2.28125 -1.237364,0.46246 -2.961937,0.282761 -2.21875,-1.46875 -0.500583,1.989885 -0.236632,4.185236 -0.53125,6.125 -2.61337,1.797878 -1.752774,5.583918 -1.96875,8.3125 0.495376,-4.654602 5.581411,-7.642015 9.96875,-6.15625 3.918288,1.096506 6.029662,5.528271 5.15625,9.4375 8.759367,0.108224 17.85371,0.403518 26.40625,0.125 -0.760731,-4.828297 3.694401,-9.368571 8.5625,-8.40625 4.140165,0.574043 6.466826,4.893051 6.125,8.84375 0.950536,-1.732071 0.840314,-4.356812 0.5625,-6.4375 -1.090902,-1.124889 -0.77768,-2.690556 -0.96875,-4.09375 -2.363523,-0.234786 -4.380299,-1.582066 -5.3125,-3.8125 -1.514096,-1.751396 2.88577,0.718248 0.199973,-1.17268 C 60.62014,52.547768 58.334908,51.868278 56.625,50.96875 50.983406,46.231494 45.012542,40.522623 37.182971,40.340497 34.416528,40.189813 31.646888,40.022396 28.875,40.125 z m -1.34375,1.71875 c -3.422112,3.201135 -3.860343,9.03758 -1.227308,12.809081 1.995905,3.257224 4.323497,6.449314 7.071058,9.065919 3.326785,1.736952 7.374041,1.287757 10.991584,2.104728 1.732829,0.649073 5.123058,-0.123273 5.758416,1.471165 -0.585207,1.297943 -3.69836,-0.09958 -5.204672,0.175683 C 40.493634,66.944142 35.831994,67.113339 31.59375,65.6875 27.973834,61.92526 25.299212,57.276193 22.256082,53.037876 20.960474,51.349056 19.056875,49.109809 20.8125,47.0625 c 0.918858,-1.856963 1.67375,-4.135653 2.875,-5.65625 0.726476,0.261387 5.867318,-0.90769 3.84375,0.4375 z m 2.6875,-0.375 c 2.552062,-0.543599 0.614361,2.596319 0.815853,4.005479 -0.501603,1.672331 0.314284,4.89955 -2.3288,4.070436 -1.42143,0.09139 -2.946824,-0.752984 -2.612053,-2.388415 -0.117906,-2.495652 1.260314,-5.729213 4.125,-5.6875 z M 31.9375,41.625 c 5.321639,0.07629 10.899775,0.680899 15.250861,4.038934 3.127744,2.013768 6.122051,4.289725 9.030389,6.648566 -8.477965,-0.855269 -16.95746,-1.697327 -25.4375,-2.53125 0.335035,-2.721546 0.560151,-5.458954 0.84375,-8.1875 l 0.3125,0.03125 z m -17.625,11.84375 c 1.256978,-0.381145 3.117573,1.183498 1.5,1.96875 -1.638538,0.942217 -2.49911,0.288844 -1.875,-1.65625 -0.206072,-0.494985 0.101514,-0.383615 0.375,-0.3125 z m 52.34375,4.34375 c 1.626983,1.968747 -1.97961,-2.53763 0,0 z"
           id="path9966"
           style="opacity:0.06666703;fill:#000000;fill-opacity:0.90196078;stroke:none;display:inline" />
        <path
           d="m 30.773122,39.744715 c -4.912719,0.03306 -11.719895,0.719979 -12.484597,0.918599 -0.431468,0.399146 -0.704021,1.113141 -0.83509,1.461407 0.125731,0.217815 0.908301,-0.121322 0.751581,0.125264 -1.946838,3.063164 -1.927971,3.365687 -2.797552,5.09405 -0.619617,1.23154 -1.373906,2.42136 -1.711935,3.757905 -0.485086,1.917998 -0.417545,5.92914 -0.417545,5.92914 0,0 -0.84484,0.617864 -1.127371,1.043863 -0.3275,0.4938 -0.500189,1.091229 -0.626318,1.67018 -0.419861,1.927217 -0.375791,5.887385 -0.375791,5.887385 l 0.584563,1.586672 c 0.317873,-11.372902 16.767404,-9.839238 14.530569,2.04597 7.333511,0.141737 21.619743,0.27246 27.182183,0.246149 -1.347823,-10.893725 14.605446,-12.193655 13.946005,0.29666 l 0.793336,0 c 0.509635,-1.336144 0.938124,-4.615234 0.459299,-6.847739 -0.109643,-0.511211 -0.603653,-0.876424 -0.751581,-1.377899 -0.275064,-0.932468 0.11086,-1.978537 -0.250527,-2.881061 -0.425706,-1.063123 -1.298724,-1.884062 -2.129479,-2.672288 -0.495379,-0.47002 -1.12555,-0.798941 -1.670181,-1.210881 -0.750842,-0.56791 -1.395582,-1.28664 -2.212989,-1.753689 -1.237131,-0.706871 -2.095939,-1.268037 -3.215097,-1.711935 -0.384883,-0.152658 -1.169126,-0.334036 -1.169126,-0.334036 0,0 -8.413497,-7.619199 -13.570214,-9.687045 -3.417277,-1.370331 -7.260971,-1.394292 -10.939681,-1.544917 -0.602101,-0.02465 -1.260645,-0.04647 -1.962462,-0.04175 z m -3.507378,1.837198 c 0,0 -1.661952,1.678011 -2.045971,2.755797 -0.907656,2.547423 -1.41867,5.7831 -0.417545,8.100374 1.659714,3.841696 4.008562,6.581701 6.430194,9.561782 0.596627,0.734216 1.168502,1.531516 1.962462,2.045971 0.783932,0.507958 1.705685,0.829104 2.630534,0.960354 5.609078,0.79601 13.946005,1.920707 13.946005,1.920707 l 0,0.542809 c 0,0 -9.85775,-0.598465 -15.532677,-1.419654 -3.208507,-0.464286 -3.041183,-1.150786 -4.718259,-3.34036 -2.943989,-3.843647 -5.322898,-7.449508 -7.849847,-11.148453 -0.515959,-0.755258 -1.194071,-1.508965 -1.252635,-2.421762 -0.04391,-0.684403 0.447231,-1.287161 0.709826,-1.920707 0.769489,-1.856493 2.58878,-5.46984 2.58878,-5.46984 z m 2.421761,0.250527 c 0.673009,-0.06522 1.503162,0.04175 1.503162,0.04175 l -1.043862,7.348793 c 0,0 -3.286181,0.17332 -3.549133,-0.918599 -0.375709,-1.560144 -0.103431,-3.065644 0.542808,-4.384223 0.401969,-0.820173 1.126578,-1.552521 1.962462,-1.920707 0.158476,-0.0698 0.360227,-0.14528 0.584563,-0.167018 z m 2.254744,0.125263 c 0,0 6.894049,0.154783 10.062836,1.336145 4.879561,1.819157 13.06916,8.559673 13.06916,8.559673 L 31.190667,49.473514 z m -17.536893,8.810201 c 0,0 2.072849,0.546227 1.920707,1.29439 -0.134395,0.660874 -2.004216,0.37579 -2.004216,0.37579 z m -0.125264,3.048079 c 4e-6,0 1.812052,0.08957 1.837199,0.751581 0.02732,0.719003 -1.920708,0.960354 -1.920708,0.960354 z m 48.059437,1.127372 c 0,0 1.121307,0.241404 1.586671,0.542808 1.104654,0.715457 2.714043,2.881061 2.714043,2.881061 0,0 -1.638443,-0.317441 -2.296498,-0.793335 -0.889687,-0.643409 -2.004216,-2.630534 -2.004216,-2.630534 z"
           id="path9970"
           style="opacity:0.06666703;fill:#000000;fill-opacity:0.90196078;stroke:none;display:inline" />
        <path
           d="m 28.84375,39.4375 c -3.596358,0.22618 -7.310078,0.290127 -10.8125,0.96875 -0.437959,0.479594 -1.502196,1.932754 -0.4375,2.125 -1.927908,3.677759 -4.700147,7.294879 -4.605265,11.638207 0.0045,1.456097 0.198401,2.853056 -1.144735,3.705543 -1.214345,2.357513 -1.074347,5.544268 -0.912386,8.211782 0.678458,2.796531 1.248261,2.049651 1.287386,-0.305532 0.480723,-4.754142 6.289764,-7.534888 10.34375,-5.0625 3.137689,1.607423 4.180549,5.627045 3.25,8.875 9.33203,0.172265 18.666274,0.249442 28,0.25 -0.897991,-4.072534 2.031373,-8.604999 6.375,-8.625 4.523258,-0.25393 7.41031,4.449582 6.875,8.59375 1.338089,1.474008 2.037734,-1.175058 2.004287,-2.48037 0.232465,-2.098115 0.318558,-4.377587 -0.910537,-6.14463 0.594275,-2.927439 -1.726663,-5.179934 -4.004464,-6.589286 C 62.195954,52.669273 59.531868,51.476804 57.125,50.40625 51.324516,45.641146 45.273,39.787613 37.276529,39.655136 34.468672,39.500318 31.65714,39.336026 28.84375,39.4375 z m -2.71875,2.875 c -2.241611,2.716346 -2.749965,6.928472 -1.65625,10.28125 1.943464,4.300183 5.048186,8.169309 8.25,11.5625 3.291856,2.0347 7.49463,1.438814 11.169018,2.306094 2.720381,0.361906 4.944783,0.693505 0.920519,0.308802 C 40.531403,66.26963 36.041408,66.402602 31.9375,65.0625 27.884332,60.514279 24.684472,55.199635 21.1875,50.21875 19.980196,48.388259 22.207086,46.554783 22.622053,44.785123 22.873832,42.788797 25.442286,40.925932 26.125,42.3125 z m 4.09375,-0.15625 c 1.257532,0.698023 -0.359252,3.751543 -0.181229,5.336517 0.512825,2.011041 -2.304375,1.553919 -3.100021,0.694733 -0.571364,-2.334609 0.51636,-5.910429 3.28125,-6.03125 z m 2.8125,0.1875 c 4.927085,0.10389 9.993922,0.94 13.96875,4.0625 2.362684,1.462565 4.653567,3.221636 6.90625,4.96875 -7.447917,-0.739583 -14.895833,-1.479167 -22.34375,-2.21875 0.229167,-2.28125 0.458333,-4.5625 0.6875,-6.84375 0.260417,0.01042 0.520833,0.02083 0.78125,0.03125 z M 14.9375,51.3125 c 0.70159,0.08322 1.587141,0.985545 0.3125,0.84375 -0.720278,0.367843 -0.78301,-1.031063 -0.3125,-0.84375 z m -0.15625,2.90625 c 0.904433,-0.06565 1.284073,0.651461 0.25,0.75 -0.694298,0.56851 -0.599761,-0.857615 -0.25,-0.75 z m 48.5625,1.40625 c 0.872049,0.283399 2.208167,1.77206 2.125,2.0625 -0.939674,-0.07927 -2.370827,-1.778078 -2.125,-2.0625 z"
           id="path9972"
           style="opacity:0.06666703;fill:#000000;fill-opacity:0.90196078;stroke:none;display:inline" />
        <path
           d="m 28.84375,39.0625 c -3.66833,0.655353 -8.382648,-0.439739 -11.46875,1.59375 -0.789638,2.120277 -0.936022,3.776424 -2.397891,5.927549 -2.218548,2.989861 -2.313982,6.859048 -2.633359,10.259951 -2.5387223,2.65773 -2.185806,7.328779 -1.3125,10.625 1.661679,4.567983 1.064486,-1.608517 2,-3.25 1.91487,-5.877037 11.78998,-4.983552 12.5625,1.25 0.537047,2.461328 -1.329039,5.732674 2.798719,4.540809 C 36.989694,70.162063 45.58893,70.218658 54.1875,70.21875 52.710528,65.213905 57.707451,59.927074 62.65625,62 c 3.347891,1.271494 4.395011,5.237169 4.03125,8.53125 C 70.245665,71.197014 69.394352,66.137316 69.5,63.75 68.983553,61.969799 68.258427,60.427117 68.34375,58.46875 65.904703,54.165614 60.942846,51.956304 56.807204,49.684739 50.468373,43.99268 43.147155,38.388476 34.135369,39.123359 32.372618,39.009602 30.608653,39.016712 28.84375,39.0625 z m -3.375,3.5 c -3.57213,4.980031 -1.719063,11.727413 2.108549,15.951994 1.528812,2.283483 4.82215,6.281945 6.235201,6.766756 C 30.07729,64.646259 29.074112,59.872895 26.588605,57.478584 25.254614,54.405827 21.291459,51.828551 21.28125,48.5 c 1.302058,-1.737289 1.992868,-6.871545 4.1875,-5.9375 z m 4.71875,-0.03125 c -0.26856,1.65397 0.537716,7.609138 -2.875,5.59375 -0.505665,-2.073901 0.281666,-5.429185 2.875,-5.59375 z m 2.84375,0.1875 C 40.581829,42.25946 47.092324,46.243895 52.6875,50.875 45.78125,50.1875 38.875,49.5 31.96875,48.8125 c 0.522532,-1.769208 -0.128432,-5.099358 1.0625,-6.09375 z M 15.09375,51.75 c 0.112313,0.07898 -0.124879,0.0056 0,0 z"
           id="path9976"
           style="opacity:0.06666703;fill:#000000;fill-opacity:0.90196078;stroke:none;display:inline" />
        <path
           d="m 28.8125,38.71875 c -3.79257,1.165764 -10.79681,-1.577701 -12.40625,3.1875 -0.975614,4.565073 -5.331793,9.203985 -4.25,14.65625 -3.3661358,3.547521 -2.4134779,10.188048 0.0625,14.1875 -0.167575,-4.551308 1.941318,-11.071883 7.65625,-10.15625 4.59053,0.327996 6.639566,5.77401 5.09375,9.71875 9.863416,0.154046 19.72867,0.26386 29.59375,0.25 -1.928321,-5.307523 4.201744,-10.992646 9.0625,-7.65625 2.54521,1.765252 2.906439,5.107654 2.71875,7.96875 4.514366,0.881681 3.895962,-5.881215 3.03125,-8.90625 C 68.532814,59.46407 68.698126,56.363375 65.8125,54.875 61.395406,51.166649 55.940075,49.555113 51.96875,45.25 45.479213,39.239184 37.370049,38.250708 28.8125,38.71875 z m -3.96875,4.0625 c -1.623334,2.910435 -2.167069,6.665829 -1.125,9.875 -2.664709,-2.184265 -2.619119,-4.966836 -0.465346,-7.522554 0.620024,-0.523295 0.579676,-2.499252 1.590346,-2.352446 z m 4.90625,0.125 c 0.198438,1.079682 0.105001,7.1633 -2.1875,4.65625 -0.263393,-1.738188 0.436371,-4.037939 2.1875,-4.65625 z M 33,43.0625 c 7.121741,-0.531689 13.301498,3.191316 18.53125,7.34375 C 45.135417,49.770833 38.739583,49.135417 32.34375,48.5 32.598927,46.739722 32.602266,44.660197 33,43.0625 z"
           id="path9980"
           style="opacity:0.06666703;fill:#000000;fill-opacity:0.90196078;stroke:none;display:inline" />
        <path
           d="m 28.8125,38.34375 c -3.919021,0.955015 -9.854816,-1.047079 -12.40625,2.5625 -1.118931,5.144467 -5.571982,9.67573 -4.5625,15.46875 -3.712334,4.146005 -2.2341256,11.189305 0.53125,15.5625 0.228486,-4.301448 1.035941,-11.603278 7.09375,-11 4.815847,0.03507 6.718785,5.773367 5.09375,9.71875 10.133752,0.216107 20.270369,0.282466 30.40625,0.28125 -1.83,-4.748448 2.857291,-10.483214 7.6875,-8.125 3.200743,1.356295 3.562601,5.394249 3.3125,8.4375 5.184479,1.388036 4.565709,-5.718985 3.90625,-9.09375 C 68.814433,59.844397 69.273895,56.529112 66.46875,55 62.136086,50.964698 56.236394,49.479925 52.1875,44.96875 45.621296,38.953753 37.543877,37.853851 28.8125,38.34375 z m 0.125,9.4375 c -3.377419,0.295843 1.737007,-7.651412 0.32666,-2.424164 -0.108886,0.808054 -0.217773,1.616109 -0.32666,2.424164 z M 34.15625,43.5 C 40.296226,43.161184 45.592866,46.340948 50.25,49.9375 44.844185,48.699011 36.418965,49.93423 32.848207,47.192334 33.428984,46.277362 32.235254,42.74487 34.15625,43.5 z m -10.9375,2.59375 c -0.551704,1.742604 -0.05631,6.845618 -1.3125,2.8125 0.427307,-0.897236 0.961214,-2.108476 1.3125,-2.8125 z"
           id="path9984"
           style="opacity:0.06666703;fill:#000000;fill-opacity:0.90196078;stroke:none;display:inline" />
        <path
           d="m 28.8125,38 c -4.152542,1.090052 -11.481764,-1.505229 -13.125,3.78125 -1.092784,4.778002 -5.246259,8.956321 -4.1875,14.375 -3.9255866,4.691421 -2.0109691,12.228631 1.0625,16.9375 0.534308,-4.257972 0.540407,-12.317892 6.875,-11.8125 4.781467,0.04615 6.372663,5.92458 4.6875,9.71875 10.404812,0.204184 20.811946,0.290587 31.21875,0.28125 -2.12864,-4.902331 3.142386,-10.982015 7.9375,-7.75 3.140715,1.740715 1.5125,6.876812 3.34375,8.0625 4.888287,0.890117 4.255591,-6.255496 3.5625,-9.625 -0.973474,-2.661048 -0.941011,-5.977225 -3.90625,-7.65625 -4.391193,-3.685149 -9.906048,-5.313561 -13.875,-9.625 C 45.914984,38.655224 37.400105,37.459544 28.8125,38 z m 5.3125,5.84375 c 5.56034,-0.199612 10.556327,2.257525 14.8125,5.59375 -4.642789,-1.940214 -16.085179,1.688448 -15.482739,-4.547612 0.556746,0.04082 -0.476525,-1.776439 0.670239,-1.046138 z m -5.53125,3.5625 c -1.326631,-0.790094 1.409561,-5.439648 0.160204,-1.144317 l -0.138648,0.990342 -0.02156,0.153975 z m -6.125,1.5 c -0.0374,2.15036 -0.393709,-1.42778 0,0 z"
           id="path9988"
           style="opacity:0.06666703;fill:#000000;fill-opacity:0.90196078;stroke:none;display:inline" />
        <path
           d="m 28.8125,37.625 c -4.345924,1.083244 -12.502059,-1.538103 -13.5,4.53125 -1.721176,4.473271 -4.810812,8.975816 -4.40625,14.03125 -3.7473208,5.418387 -1.5088228,12.911258 1.8125,18.09375 0.740343,-4.371401 0.306047,-13.650751 7.25,-12.59375 4.493804,0.548441 5.152565,6.165408 3.75,9.65625 10.664293,0.261165 21.332843,0.313855 32,0.3125 C 53.671574,67.133231 58.140784,60.641121 63,63.8125 c 2.619233,1.760039 2.339547,5.396279 2.25,8.15625 4.015083,1.204196 5.750317,-1.495802 5.65625,-5.125 0.499635,-3.428376 -1.06498,-6.403682 -1.59375,-9.625 C 65.266725,51.108106 57.480602,49.689942 52.625,44.40625 46.051027,38.322014 37.466557,37.100399 28.8125,37.625 z m 5.28125,6.5625 c 5.013593,-0.06946 9.607526,1.67155 13.53125,4.78125 -4.145962,-1.951011 -15.493282,1.980306 -13.75,-4.78125 l 0.21875,0 z"
           id="path9992"
           style="opacity:0.06666703;fill:#000000;fill-opacity:0.90196078;stroke:none;display:inline" />
        <path
           d="m 28.8125,37.28125 c -4.555936,0.960924 -12.225733,-1.381803 -13.84375,4.375 -1.213839,4.690136 -5.0373596,9.020158 -4.3125,14.28125 -4.1908955,5.899712 -1.2101729,13.890117 2.21875,19.46875 1.485132,-4.150031 -0.388989,-13.200809 6.21875,-13.4375 4.921174,-0.140216 5.868561,6.043192 4.1875,9.71875 10.935393,0.253466 21.87444,0.319356 32.8125,0.3125 -1.560913,-3.866642 0.858746,-9.957301 5.71875,-8.40625 3.499227,1.254773 3.234197,5.697545 3.09375,8.71875 3.781876,0.894452 6.224816,-0.630472 6.28125,-4.40625 C 72.013,64.045592 70.201339,60.77231 69.71875,57.1875 65.696566,50.956974 57.798705,49.328958 52.84375,44.125 46.159778,37.988054 37.636964,36.73304 28.8125,37.28125 z m 6.71875,7.40625 c 3.955007,0.0087 7.496811,1.431235 10.65625,3.75 -2.489824,-0.892165 -17.310034,0.175441 -10.65625,-3.75 z"
           id="path9996"
           style="opacity:0.06666703;fill:#000000;fill-opacity:0.90196078;stroke:none;display:inline" />
      </g>
      <g
         transform="matrix(1.1991038,0,0,1.1991038,136.47544,515.98652)"
         id="g8544"
         style="display:inline">
        <path
           d="m 34.15625,26.5625 c -3.676788,0.02474 -8.77143,0.538849 -9.34375,0.6875 -0.32292,0.29873 -0.526905,0.8331 -0.625,1.09375 0.0941,0.163017 0.679793,-0.0908 0.5625,0.09375 -1.457057,2.29254 -1.442936,2.518955 -2.09375,3.8125 -0.463735,0.921712 -1.028262,1.8122 -1.28125,2.8125 -0.363049,1.435472 -0.3125,4.4375 -0.3125,4.4375 0,0 -0.632297,0.462423 -0.84375,0.78125 -0.245108,0.369571 -0.374352,0.8167 -0.46875,1.25 -0.314233,1.442372 -0.28125,4.40625 -0.28125,4.40625 l 0.4375,1.1875 c 0.237903,-8.511732 12.549097,-7.363904 10.875,1.53125 5.488563,0.106079 16.180696,0.203915 20.34375,0.184223 -1.008741,-8.153106 10.93104,-9.126002 10.4375,0.222027 l 0.59375,0 c 0.381422,-1 0.702113,-3.454144 0.34375,-5.125 -0.08206,-0.382602 -0.451788,-0.655935 -0.5625,-1.03125 -0.205864,-0.69788 0.08297,-1.480781 -0.1875,-2.15625 -0.318608,-0.795665 -0.971994,-1.410074 -1.59375,-2 -0.370752,-0.351773 -0.842386,-0.597945 -1.25,-0.90625 C 58.344303,37.418713 57.861765,36.8808 57.25,36.53125 56.324103,36.002212 55.681352,35.582223 54.84375,35.25 54.555695,35.135747 53.96875,35 53.96875,35 c 0,0 -6.296848,-5.702378 -10.15625,-7.25 C 41.254934,26.724414 38.378228,26.706481 35.625,26.59375 35.174374,26.5753 34.681505,26.55897 34.15625,26.5625 z m -2.625,1.375 c 0,0 -1.243842,1.255861 -1.53125,2.0625 -0.67931,1.906548 -1.061764,4.3282 -0.3125,6.0625 1.242167,2.87521 3.000097,4.925891 4.8125,7.15625 0.446529,0.549503 0.874533,1.14622 1.46875,1.53125 0.586712,0.380167 1.276573,0.62052 1.96875,0.71875 4.197959,0.595752 10.4375,1.4375 10.4375,1.4375 l 0,0.40625 c 0,0 -7.377759,-0.447904 -11.625,-1.0625 -2.401318,-0.347482 -2.276089,-0.861274 -3.53125,-2.5 -2.203347,-2.876671 -3.983775,-5.575377 -5.875,-8.34375 -0.386155,-0.565252 -0.893669,-1.129343 -0.9375,-1.8125 -0.03286,-0.512223 0.334718,-0.96334 0.53125,-1.4375 0.575902,-1.389441 1.9375,-4.09375 1.9375,-4.09375 z m 1.8125,0.1875 c 0.503695,-0.04881 1.125,0.03125 1.125,0.03125 l -0.78125,5.5 c 0,0 -2.459451,0.129716 -2.65625,-0.6875 -0.281189,-1.167647 -0.07741,-2.294396 0.40625,-3.28125 0.300842,-0.613836 0.843156,-1.161941 1.46875,-1.4375 0.118607,-0.05224 0.269602,-0.108731 0.4375,-0.125 z m 1.6875,0.09375 c 0,0 5.15966,0.115843 7.53125,1 3.651972,1.361498 9.78125,6.40625 9.78125,6.40625 l -17.875,-1.78125 z m -13.125,6.59375 c 0,0 1.551366,0.408808 1.4375,0.96875 -0.100584,0.494613 -1.5,0.28125 -1.5,0.28125 z m -0.09375,2.28125 c 3e-6,0 1.35618,0.06704 1.375,0.5625 C 23.207946,38.194368 21.75,38.375 21.75,38.375 z m 35.96875,0.84375 c 0,0 0.839211,0.180672 1.1875,0.40625 C 59.795497,38.879214 61,40.5 61,40.5 c 0,0 -1.226247,-0.23758 -1.71875,-0.59375 -0.665862,-0.481541 -1.5,-1.96875 -1.5,-1.96875 z"
           transform="translate(0,16)"
           id="path7171"
           style="fill:#ffffff;fill-opacity:1;stroke:none;display:inline" />
        <path
           d="m 30.521602,46.975212 a 4.8855276,4.7819476 0 1 1 -9.771056,0 4.8855276,4.7819476 0 1 1 9.771056,0 z"
           transform="translate(-0.1763346,15.806736)"
           id="path7953"
           style="fill:#ffffff;fill-opacity:1;stroke:none;display:inline" />
        <path
           d="m 61.215836,47.637531 a 4.5402608,4.6375308 0 1 1 -9.080522,0 4.5402608,4.6375308 0 1 1 9.080522,0 z"
           transform="matrix(1.0149016,0,0,1.0149016,-1.2784464,15.276098)"
           id="path7955"
           style="fill:#ffffff;fill-opacity:1;stroke:none;display:inline" />
      </g>
    </g>
  </g>
</svg>
