<?xml version="1.0" encoding="UTF-8" standalone="no"?>
<!-- Created with Inkscape (http://www.inkscape.org/) -->

<svg
   xmlns:dc="http://purl.org/dc/elements/1.1/"
   xmlns:cc="http://creativecommons.org/ns#"
   xmlns:rdf="http://www.w3.org/1999/02/22-rdf-syntax-ns#"
   xmlns:svg="http://www.w3.org/2000/svg"
   xmlns="http://www.w3.org/2000/svg"
   version="1.1"
   width="64"
   height="64"
   id="svg3567">
  <defs
     id="defs3569" />
  <metadata
     id="metadata3572">
    <rdf:RDF>
      <cc:Work
         rdf:about="">
        <dc:format>image/svg+xml</dc:format>
        <dc:type
           rdf:resource="http://purl.org/dc/dcmitype/StillImage" />
        <dc:title></dc:title>
      </cc:Work>
    </rdf:RDF>
  </metadata>
  <g
     transform="translate(786.78476,-263.76591)"
     id="layer1">
    <rect
       width="64"
       height="64"
       x="-0.12626907"
       y="-0.14468676"
       transform="translate(-786.78476,263.76591)"
       id="rect4581"
       style="fill:#ff972b;fill-opacity:1;stroke:none" />
    <path
       d="m -770.82425,271.70916 c -1.84662,0 -2.76993,0.92331 -2.76993,2.76993 0,1.88856 0.46166,36.84006 0.46166,36.88622 0,4.20106 -2.76993,4.20106 -2.76993,4.20106 l 0,4.15489 29.08425,0 0,-4.15489 c 0,0 -2.76993,-0.0923 -2.76993,-4.24722 l 0,-28.16095 0,-8.67911 c 0,-1.88444 -0.92331,-2.76993 -2.76993,-2.76993 l -18.46619,0 z m 1.38496,3.13925 15.69627,0 0,13.84965 -15.69627,0 0,-13.84965 z"
       id="rect2907-0-9"
       style="opacity:0.5330582;fill:#000000;fill-opacity:1;stroke:#969696;stroke-width:0;stroke-linecap:round;stroke-linejoin:round;stroke-miterlimit:4;stroke-opacity:1;stroke-dashoffset:0;display:inline" />
    <g
       transform="translate(-794.66633,238.71526)"
       id="g16677"
       style="opacity:0.5330582;display:inline">
      <path
         d="m 54.772956,44.073611 c -1.384965,-2.308275 -2.76993,-5.539858 -2.76993,-5.539858 l -3.693239,-4.154894 2.308275,-1.384965 3.693239,3.693239 4.154894,4.154893 c 1.846619,2.76993 1.846619,2.76993 2.769929,6.463169 -4.616549,2.769929 -1.84662,7.386478 -0.92331,13.849646 0.969173,6.78421 2.769929,15.696265 -7.386478,15.696265 -10.156407,0 0.461655,-21.236124 -7.848133,-21.236124 0,-1.593529 0,-1.846619 0,-3.231584 12.464682,-3.231584 1.84662,21.236124 8.771443,21.236124 5.309031,0 4.52362,-5.911576 2.769929,-12.926336 -2.308274,-9.233097 -0.461655,-14.3113 -1.846619,-16.619575 z"
         id="rect2916-0-1"
         style="fill:#000000;fill-opacity:1;stroke:#969696;stroke-width:0;stroke-linecap:round;stroke-linejoin:round;stroke-miterlimit:4;stroke-opacity:1;stroke-dashoffset:0" />
      <g
         id="g16557">
        <path
           d="m 40.9375,52.46875 c -5.321165,0.432099 -13.734069,-0.75493 -17.145941,0.374947 -0.617424,7.835785 1.571643,16.110831 -0.604059,23.718803 -4.596659,4.170735 6.661316,0.90824 9.1875,1.9375 2.644926,-0.868058 13.787597,1.648349 11.71875,-1.0625 -3.55799,-6.161424 -0.470073,-14.071586 -1.5,-20.84375 -0.594874,-1.437555 1.475835,-6.432523 -1.65625,-4.125 z"
           id="path16559"
           style="opacity:0.06666703;fill:#000000;fill-opacity:1;stroke:#969696;stroke-width:0;stroke-linecap:round;stroke-linejoin:round;stroke-miterlimit:4;stroke-opacity:1;stroke-dashoffset:0" />
        <path
           d="m 23.375,35.1875 c -0.499844,0.378129 0.255029,0.993275 0,0 z M 42.9375,35.75 c 0.129172,-0.490978 -0.509373,-1.031111 0,0 z M 42.375,51.5625 c -5.99645,0.849626 -12.833114,1.122943 -18.75,-0.15625 -0.428012,3.298079 0.07742,11.338039 0.0039,16.467763 0.438043,3.824628 0.283144,8.453993 -2.722699,10.969737 8.085376,-0.341707 17.532174,0.678008 24.78125,-0.5 -5.427134,-4.481138 -1.593579,-12.756263 -2.75,-18.75 -0.360111,-0.846891 0.717979,-12.176838 -0.5625,-8.03125 z"
           id="path16563"
           style="opacity:0.06666703;fill:#000000;fill-opacity:1;stroke:#969696;stroke-width:0;stroke-linecap:round;stroke-linejoin:round;stroke-miterlimit:4;stroke-opacity:1;stroke-dashoffset:0" />
        <path
           d="m 23.46875,34.8125 c -1.997465,1.837323 0.219462,6.7721 -0.506438,9.468596 -0.452022,10.467816 1.337502,21.241775 -0.243562,31.562654 -3.920365,3.50047 -0.487483,3.908172 3.8125,3.375 6.510417,0 13.020833,0 19.53125,0 -0.76781,-2.254798 -3.682187,-4.451996 -2.75,-7.625 C 43.056898,59.418346 43.790726,46.835932 43,34.875 c -1.676681,-0.198176 0.640399,5.930944 -0.28125,8.25 2.25861,7.663804 -2.959076,10.23232 -9.78125,8.625 -6.900109,1.686451 -11.714636,-1.305267 -9.5,-8.78125 -0.413164,-2.279273 0.567079,-7.237067 0.03125,-8.15625 z"
           id="path16567"
           style="opacity:0.06666703;fill:#000000;fill-opacity:1;stroke:#969696;stroke-width:0;stroke-linecap:round;stroke-linejoin:round;stroke-miterlimit:4;stroke-opacity:1;stroke-dashoffset:0" />
        <path
           d="m 23.21875,34.5 c -2.247725,1.92145 0.217591,6.992751 -0.600188,9.781096 -0.425557,10.420173 1.283897,21.120966 -0.212312,31.406404 -3.331837,2.821316 -1.943294,4.863123 2.78125,3.875 7.072917,0 14.145833,0 21.21875,0 0.18631,-2.506789 -3.543075,-3.886838 -2.75,-6.96875 C 43.370806,60.014137 44.188332,46.947984 43.3125,34.625 36.762692,34.206556 29.854913,34.492132 23.21875,34.5 z m 17.71875,0.1875 c 2.952059,3.888946 1.222242,11.433528 0.90625,16.40625 -5.773729,0.369032 -12.087761,0.818784 -17.75,-0.21875 0.621584,-4.766562 -2.974057,-14.259915 2.125,-16.1875 4.90625,0 9.8125,0 14.71875,0 z"
           id="path16571"
           style="opacity:0.06666703;fill:#000000;fill-opacity:1;stroke:#969696;stroke-width:0;stroke-linecap:round;stroke-linejoin:round;stroke-miterlimit:4;stroke-opacity:1;stroke-dashoffset:0" />
        <path
           d="m 23.28125,34.09375 c -3.085569,1.750322 -0.08014,7.294413 -1.037688,10.218596 -0.381038,10.348067 1.204057,21.045344 -0.181062,31.218904 -1.291168,1.456735 -4.50949,4.827949 -0.25,4.40625 8.322917,0 16.645833,0 24.96875,0 0.923029,-3.030265 -3.71207,-3.950851 -2.75,-7.34375 C 43.706514,59.932036 44.643445,46.900623 43.625,34.4375 37.120512,33.4149 29.966655,34.390075 23.28125,34.09375 z M 40.9375,35.0625 c 1.275232,3.735516 2.876619,13.878406 -1,15.96875 -4.736842,-1.459848 -15.19681,3.269595 -15.78125,-3.0625 0.611727,-5.254469 -2.862155,-15.530801 6.0625,-12.90625 3.572917,0 7.145833,0 10.71875,0 z"
           id="path16575"
           style="opacity:0.06666703;fill:#000000;fill-opacity:1;stroke:#969696;stroke-width:0;stroke-linecap:round;stroke-linejoin:round;stroke-miterlimit:4;stroke-opacity:1;stroke-dashoffset:0" />
        <path
           d="m 23.25,33.75 c -3.043613,0.896585 -0.707436,5.566434 -1.386341,7.776191 -0.118684,11.090079 0.775831,22.287314 0.07384,33.317559 -0.579899,2.338652 -3.792042,2.460021 -2.46875,5.4375 9.21875,0 18.4375,0 27.65625,0 0.89844,-2.471621 -0.592682,-3.050113 -1.96875,-4.4375 C 43.19909,70.598648 44.985859,64.541935 44.375,59.022323 44.079752,50.834291 44.918396,42.415458 44.03125,34.34375 40.904362,32.572089 36.528176,34.355258 33.026787,33.71875 29.769096,33.745504 26.504226,33.669001 23.25,33.75 z m 17.6875,1.65625 c 1.682124,4.165872 0.236426,9.627331 0.71875,14.290177 -2.906276,2.283668 -8.289302,0.35293 -12.14732,0.991073 -6.048077,2.007248 -5.233194,-3.819945 -5.00893,-7.861606 -0.743843,-4.642573 -0.179419,-9.266509 5.718749,-7.419644 3.572917,0 7.145834,0 10.718751,0 z"
           id="path16579"
           style="opacity:0.06666703;fill:#000000;fill-opacity:1;stroke:#969696;stroke-width:0;stroke-linecap:round;stroke-linejoin:round;stroke-miterlimit:4;stroke-opacity:1;stroke-dashoffset:0" />
        <path
           d="m 23.25,33.375 c -2.769383,0.429848 -1.594066,4.065786 -1.792491,5.977311 0.1036,11.475185 0.390035,22.958208 0.354991,34.428939 -0.138806,1.530679 -1.120937,3.154152 -2.71875,3.375 -0.53853,2.776626 0.240091,4.2361 3.214286,3.5 8.397322,0 16.794643,0 25.191964,0 -0.190596,-1.568468 0.727115,-3.654975 -1.25,-4.09375 -2.566127,-2.323775 -1.105679,-6.285228 -1.5,-9.325894 C 44.663878,56.453346 44.92037,45.639862 44.625,34.875 43.833529,32.30096 40.342817,33.702898 38.383928,33.34375 33.340089,33.365664 28.290536,33.300616 23.25,33.375 z m 17.6875,2.40625 c 0.808647,2.088998 0.110048,4.802317 0.34375,7.129466 -0.226648,2.420842 0.455374,5.218069 -0.34375,7.401784 -5.239583,0 -10.479167,0 -15.71875,0 -0.808647,-2.088998 -0.110048,-4.802317 -0.34375,-7.129466 0.226648,-2.420842 -0.455374,-5.218069 0.34375,-7.401784 5.239583,0 10.479167,0 15.71875,0 z"
           id="path16583"
           style="opacity:0.06666703;fill:#000000;fill-opacity:1;stroke:#969696;stroke-width:0;stroke-linecap:round;stroke-linejoin:round;stroke-miterlimit:4;stroke-opacity:1;stroke-dashoffset:0" />
        <path
           d="m 23.84208,32.993894 c -1.846619,0 -2.769929,0.92331 -2.769929,2.769929 0,1.888568 0.461655,36.840059 0.461655,36.886225 0,4.201058 -2.76993,4.201058 -2.76993,4.201058 l 0,4.154894 29.084257,0 0,-4.154894 c 0,0 -2.76993,-0.09233 -2.76993,-4.247224 l 0,-28.160947 0,-8.679112 c 0,-1.884434 -0.923309,-2.769929 -2.769928,-2.769929 l -18.466195,0 z m 1.384965,3.139253 15.696265,0 0,13.849646 -15.696265,0 0,-13.849646 z"
           id="path16587"
           style="opacity:0.06666703;fill:#000000;fill-opacity:1;stroke:#969696;stroke-width:0;stroke-linecap:round;stroke-linejoin:round;stroke-miterlimit:4;stroke-opacity:1;stroke-dashoffset:0" />
        <path
           d="m 23.15625,32.6875 c -3.249008,0.359357 -2.341367,4.375815 -2.386485,6.633565 0.06038,11.545608 0.479032,23.118447 0.292735,34.647685 -0.103859,1.661422 -1.504211,2.266164 -2.65625,2.875 0.201991,1.820014 -0.986849,5.417999 2.129465,4.5 9.102678,0 18.205357,0 27.308035,0 0.427078,-1.214909 0.903971,-4.084981 -0.28125,-4.875 -3.138568,-1.268442 -1.86943,-5.492662 -2.125,-8.160715 C 45.351753,57.125524 45.60738,45.916042 45.3125,34.75 44.610211,31.636799 40.650347,32.908648 38.383928,32.65625 33.308694,32.678145 28.22883,32.613138 23.15625,32.6875 z m 17.4375,3.78125 c 0,4.385417 0,8.770833 0,13.15625 -5.010417,0 -10.020833,0 -15.03125,0 0,-4.385417 0,-8.770833 0,-13.15625 5.010417,0 10.020833,0 15.03125,0 z"
           id="path16589"
           style="opacity:0.06666703;fill:#000000;fill-opacity:1;stroke:#969696;stroke-width:0;stroke-linecap:round;stroke-linejoin:round;stroke-miterlimit:4;stroke-opacity:1;stroke-dashoffset:0" />
        <path
           d="m 23.125,32.3125 c -4.745769,1.028018 -2.075399,7.41076 -2.678639,10.714231 -0.164264,10.56223 0.824214,21.270208 0.02239,31.754519 -0.845425,1.623433 -3.496584,1.593963 -2.4375,4.205358 -0.333899,5.239764 7.408373,1.705061 10.718752,2.732142 6.461039,-0.341947 13.487336,0.68076 19.598824,-0.505076 C 49.040957,78.871443 48.797937,76.367022 46.5,75.3125 44.647862,70.759508 46.443049,65.295528 45.8125,60.450891 45.506857,51.637835 46.384334,42.666522 45.4375,33.9375 42.824316,30.454249 37.406158,33.118062 33.74107,32.28125 30.203358,32.307449 26.659939,32.232234 23.125,32.3125 z m 17.09375,4.53125 c -0.511252,3.86226 1.001729,9.748753 -0.714286,12.40625 -4.522321,0 -9.044643,0 -13.566964,0 0.511252,-3.86226 -1.001729,-9.748753 0.714286,-12.40625 4.522321,0 9.044643,0 13.566964,0 z"
           id="path16593"
           style="opacity:0.06666703;fill:#000000;fill-opacity:1;stroke:#969696;stroke-width:0;stroke-linecap:round;stroke-linejoin:round;stroke-miterlimit:4;stroke-opacity:1;stroke-dashoffset:0" />
        <path
           d="M 23.09375,31.96875 C 17.38081,33.379919 21.065865,41.28338 20.130968,45.312269 19.797876,55.112466 21.216583,65.299282 20,74.90625 c -2.447382,1.39004 -3.1263,4.082086 -1.90625,6.9375 10.092691,0.224542 20.597585,0.635318 30.59375,-0.1875 1.229129,-3.374259 -0.128563,-5.273568 -2.25,-7.125 C 45.434398,61.028654 46.963226,47.216661 45.75,33.75 42.428539,29.662196 35.801995,33.040512 31.3125,31.9375 28.574419,31.97104 25.828847,31.87819 23.09375,31.96875 z M 39.875,37.1875 c -0.0397,6.199888 2.121139,14.600305 -7,11.71875 -8.976493,2.872326 -6.347276,-5.861057 -6.59375,-11.71875 4.53125,0 9.0625,0 13.59375,0 z"
           id="path16597"
           style="opacity:0.06666703;fill:#000000;fill-opacity:1;stroke:#969696;stroke-width:0;stroke-linecap:round;stroke-linejoin:round;stroke-miterlimit:4;stroke-opacity:1;stroke-dashoffset:0" />
        <path
           d="m 23.34375,31.59375 c -6.3345,0.962772 -2.795332,9.549864 -3.587782,13.749769 -0.314633,9.744941 1.02897,19.748376 -0.06847,29.375231 -2.070902,1.295163 -3.119732,3.237694 -2.375,6.28125 4.263638,3.302918 11.892732,0.51707 17.4375,1.4375 4.367369,-1.435997 14.609642,3.382238 14.53125,-3.4375 1.155252,-3.52458 -4.134351,-3.591601 -2.75,-7.40625 -0.387364,-12.63141 0.723286,-25.57056 -0.46875,-38.03125 -3.652588,-4.450387 -10.827591,-0.826546 -15.75,-2 -2.320595,0.03026 -4.653811,-0.0547 -6.96875,0.03125 z M 39.5,37.5625 c 0.665497,6.988413 0.95236,13.598194 -8,10.96875 -7.014669,3.619733 -6.78707,-12.205361 -1.84375,-10.96875 3.28125,0 6.5625,0 9.84375,0 z"
           id="path16601"
           style="opacity:0.06666703;fill:#000000;fill-opacity:1;stroke:#969696;stroke-width:0;stroke-linecap:round;stroke-linejoin:round;stroke-miterlimit:4;stroke-opacity:1;stroke-dashoffset:0" />
        <path
           d="m 23,31.25 c -6.30857,1.335019 -2.815746,9.714659 -3.587782,14.093519 -0.373938,9.688497 1.122489,19.76075 -0.09972,29.281481 -3.708022,1.014855 -3.640364,9.538369 1.4375,8.15625 9.439672,-0.438757 19.256626,0.864256 28.46875,-0.625 1.253719,-3.117422 0.515076,-6.270996 -2.0625,-7.78125 C 46.159947,60.91998 47.652371,47.113284 46.5,33.65625 43.077648,28.531923 35.366012,32.443654 30.3125,31.21875 27.876482,31.252031 25.433035,31.159657 23,31.25 z m 16.15625,6.65625 c 0.887622,6.981372 0.636242,12.823742 -8,10.28125 C 24.879724,51.471967 25.060739,36.136255 30,37.90625 c 3.052083,0 6.104167,0 9.15625,0 z"
           id="path16605"
           style="opacity:0.06666703;fill:#000000;fill-opacity:1;stroke:#969696;stroke-width:0;stroke-linecap:round;stroke-linejoin:round;stroke-miterlimit:4;stroke-opacity:1;stroke-dashoffset:0" />
        <path
           d="m 23.28125,30.875 c -6.888989,0.887779 -3.646147,9.909371 -4.244032,14.468519 -0.218915,9.614446 0.849546,19.576947 0.02528,29.031481 -3.861983,1.194699 -3.782343,10.121752 1.6875,8.78125 9.506441,-0.500248 19.440605,0.988346 28.6875,-0.71875 1.400574,-3.072709 0.825813,-6.713533 -1.9375,-8.21875 -0.96289,-13.429756 0.590056,-27.262699 -0.6875,-40.6875 -3.379314,-5.404 -11.334874,-1.497203 -16.5,-2.6875 -2.34198,0.03049 -4.693376,-0.05507 -7.03125,0.03125 z m 15.5,7.40625 c 1.613406,7.79049 -0.843199,11.510968 -9,9.53125 -4.774258,-0.123925 -3.793723,-13.69938 3.59375,-9.53125 1.802083,0 3.604167,0 5.40625,0 z"
           id="path16609"
           style="opacity:0.06666703;fill:#000000;fill-opacity:1;stroke:#969696;stroke-width:0;stroke-linecap:round;stroke-linejoin:round;stroke-miterlimit:4;stroke-opacity:1;stroke-dashoffset:0" />
        <path
           d="M 22.9375,30.53125 C 15.755267,32.012725 19.476635,41.349627 18.705874,46.343442 18.373858,55.557601 19.752883,65.428569 18.59375,74.34375 14.043129,75.972085 15.760968,85.836068 21.75,83.5 30.994937,82.962631 40.681615,84.566095 49.65625,82.71875 51.318566,79.486621 50.500365,75.516222 47.75,73.90625 47.02796,60.472997 48.361385,46.783013 47.15625,33.40625 43.761262,27.732928 35.618044,31.672531 30.3125,30.5 c -2.456927,0.03237 -4.921029,-0.05787 -7.375,0.03125 z m 15.5,8.09375 c 2.18296,8.46421 -2.358924,10.203576 -10,8.84375 -3.245348,-6.079564 0.619282,-11.28258 8.28125,-8.84375 l 1,0 0.71875,0 z"
           id="path16613"
           style="opacity:0.06666703;fill:#000000;fill-opacity:1;stroke:#969696;stroke-width:0;stroke-linecap:round;stroke-linejoin:round;stroke-miterlimit:4;stroke-opacity:1;stroke-dashoffset:0" />
      </g>
    </g>
    <g
       transform="translate(-794.66633,238.71526)"
       id="g16617"
       style="opacity:0.5330582;display:inline">
      <path
         d="m 57.46875,44.03125 c 0.107429,2.956232 1.50795,3.156054 0.1875,0.15625 0.02076,-0.0099 -0.526599,-0.888969 -0.1875,-0.15625 z"
         id="path16619"
         style="opacity:0.06666703;fill:#000000;fill-opacity:1;stroke:#969696;stroke-width:0;stroke-linecap:round;stroke-linejoin:round;stroke-miterlimit:4;stroke-opacity:1;stroke-dashoffset:0" />
      <path
         d="m 55.65625,41.21875 c 1.532057,1.797888 1.89669,4.822132 1.9375,6.625 2.957145,-1.80341 -1.294696,-6.309098 -1.9375,-6.625 z"
         id="path16623"
         style="opacity:0.06666703;fill:#000000;fill-opacity:1;stroke:#969696;stroke-width:0;stroke-linecap:round;stroke-linejoin:round;stroke-miterlimit:4;stroke-opacity:1;stroke-dashoffset:0" />
      <path
         d="m 54.5,39.6875 c 2.058696,2.814809 3.13606,7.033062 2.6875,9.84375 C 58.340719,47.389954 60.101397,45.709079 58,43.375 57.486414,42.247433 54.116787,38.596842 54.5,39.6875 z m -7.625,14.40625 c 1.735489,0.434369 3.469255,4.016687 2.0625,0.65625 -0.310696,-0.622367 -1.743451,-1.269133 -2.0625,-0.65625 z M 57.8125,57.875 c 1.048108,5.022351 0.06132,-0.389048 0,0 z M 50.4375,73.5 c 0.707251,1.502363 2.313387,1.942556 0.21875,0.25 -0.06619,0.04778 -0.358742,-0.806933 -0.21875,-0.25 z"
         id="path16627"
         style="opacity:0.06666703;fill:#000000;fill-opacity:1;stroke:#969696;stroke-width:0;stroke-linecap:round;stroke-linejoin:round;stroke-miterlimit:4;stroke-opacity:1;stroke-dashoffset:0" />
      <path
         d="m 53.0625,37.59375 c 2.633759,4.322339 4.705434,9.048243 3.75,14.375 -0.588628,7.146842 5.381003,15.155591 0.84375,21.75 -3.483558,3.459553 -8.820673,-0.132337 -7.8125,-4.6875 -0.716221,-4.848445 2.175196,-11.338113 -1.4375,-15.25 -3.450008,-0.87791 -0.309327,1.347525 0.71875,2.8125 2.817291,5.692916 -2.015019,13.464083 2.09375,18.4375 4.672234,2.066203 9.619451,-2.312072 8.40625,-7.15625 0.673791,-6.576635 -4.228781,-13.30411 -1.4375,-19.625 3.759901,-3.879906 -3.179101,-8.445329 -5.582107,-11.269607 -1.747312,-1.79339 0.0858,0.166897 0.457107,0.613357 z"
         id="path16631"
         style="opacity:0.06666703;fill:#000000;fill-opacity:1;stroke:#969696;stroke-width:0;stroke-linecap:round;stroke-linejoin:round;stroke-miterlimit:4;stroke-opacity:1;stroke-dashoffset:0" />
      <path
         d="m 49.96875,34.625 c 4.428272,4.5971 7.548923,10.77895 6.46875,17.34375 -0.548776,7.100805 5.237073,14.911171 1,21.46875 C 54.158784,76.7249 49.189271,73.27246 50.21875,69 49.518898,64.099703 52.477366,57.315812 48.5625,53.46875 c -2.424285,-1.416918 -3.310247,1.438005 -0.71875,2 4.6441,5.53359 -1.400217,14.219592 2.96875,19.75 C 55.6464,77.687799 61.313793,73.115291 60,67.875 60.686829,61.241374 55.562932,54.364806 58.6875,48.125 62.107902,44.206064 55.33252,39.594142 52.855393,36.730393 51.904723,36.366481 51.056121,33.794703 49.96875,34.625 z"
         id="path16635"
         style="opacity:0.06666703;fill:#000000;fill-opacity:1;stroke:#969696;stroke-width:0;stroke-linecap:round;stroke-linejoin:round;stroke-miterlimit:4;stroke-opacity:1;stroke-dashoffset:0" />
      <path
         d="m 49.4375,34.5625 c 3.09065,3.041754 5.245217,7.020291 6.53125,11.0625 -0.391023,7.458115 1.296407,14.601606 2.625281,21.836521 1.292153,3.927172 -2.890574,8.86391 -6.719031,6.132229 -3.681573,-5.934823 1.377909,-14.024257 -2.46875,-19.96875 -1.3789,-1.663869 -5.281461,-0.640572 -3.15625,1.4375 4.767884,2.008227 2.502514,8.670387 2.690729,12.6132 -0.459678,3.384703 -0.0066,9.411687 4.871771,8.41805 4.802578,0.394512 7.440965,-4.667999 6.5,-8.9375 C 60.571917,61.140303 57.015495,55.371983 58.34375,49.4375 59.246744,47.678094 61.320778,46.743054 59.75,44.59375 58.020293,40.138787 53.577464,37.452035 50.53125,33.90625 L 49.918755,34.273747 49.4375,34.5625 z"
         id="path16639"
         style="opacity:0.06666703;fill:#000000;fill-opacity:1;stroke:#969696;stroke-width:0;stroke-linecap:round;stroke-linejoin:round;stroke-miterlimit:4;stroke-opacity:1;stroke-dashoffset:0" />
      <path
         d="m 48.875,34.46875 c 2.131472,2.15074 4.030044,4.433624 5.046909,7.321941 1.591363,2.08318 1.989617,4.599158 1.765591,7.186988 -0.370373,5.931782 1.449829,11.621318 2.42263,17.388488 0.504187,2.777738 0.279472,7.106542 -3.29763,7.540083 -2.697245,0.780885 -4.051855,-2.177238 -3.856497,-4.419415 C 50.513454,64.334989 52.461447,58.687315 50.0625,53.875 c -0.956598,-1.479019 -3.006003,-1.704488 -4.625,-1.21875 -0.278757,1.817295 -0.157655,2.913646 1.71875,3.1875 2.737235,2.661277 1.475492,7.00131 1.5,10.40625 -0.05085,3.21321 -0.899198,7.640739 2.09375,9.75 3.757351,1.554854 9.278894,-0.3672 9.761075,-4.849482 C 61.403621,64.819102 59.139241,58.613473 58.3125,52.40625 58.057359,50.318215 58.989948,48.18187 60.84375,47.125 60.120751,41.638812 55.294498,38.419604 51.789656,34.664656 50.738272,33.159902 50.23678,33.476829 48.875,34.46875 z"
         id="path16643"
         style="opacity:0.06666703;fill:#000000;fill-opacity:1;stroke:#969696;stroke-width:0;stroke-linecap:round;stroke-linejoin:round;stroke-miterlimit:4;stroke-opacity:1;stroke-dashoffset:0" />
      <path
         d="m 54.772956,44.073611 c -1.384965,-2.308275 -2.76993,-5.539858 -2.76993,-5.539858 l -3.693239,-4.154894 2.308275,-1.384965 3.693239,3.693239 4.154894,4.154893 c 1.846619,2.76993 1.846619,2.76993 2.769929,6.463169 -4.616549,2.769929 -1.84662,7.386478 -0.92331,13.849646 0.969173,6.78421 2.769929,15.696265 -7.386478,15.696265 -10.156407,0 0.461655,-21.236124 -7.848133,-21.236124 0,-1.593529 0,-1.846619 0,-3.231584 12.464682,-3.231584 1.84662,21.236124 8.771443,21.236124 5.309031,0 4.52362,-5.911576 2.769929,-12.926336 -2.308274,-9.233097 -0.461655,-14.3113 -1.846619,-16.619575 z"
         id="path16647"
         style="opacity:0.06666703;fill:#000000;fill-opacity:1;stroke:#969696;stroke-width:0;stroke-linecap:round;stroke-linejoin:round;stroke-miterlimit:4;stroke-opacity:1;stroke-dashoffset:0" />
      <path
         d="m 48.125,34.0625 c 0.399608,2.232966 3.375962,3.499087 4.108074,5.806512 1.145353,2.815655 3.342864,5.150641 2.766926,8.394381 -0.378673,6.071431 1.19558,11.959466 2.384302,17.84144 0.411069,2.497643 0.593667,6.625251 -2.696802,7.113917 -2.528619,0.7018 -3.201992,-2.373734 -3.0625,-4.25 -0.328657,-5.113 1.499101,-10.750192 -0.96875,-15.5 C 49.473623,51.581461 46.467896,51.210522 44.75,52.375 c 0.114216,1.526865 -0.708409,3.983603 1.59375,3.8125 2.654012,1.766327 1.705921,5.659136 1.72737,8.387675 -0.02873,3.815924 -1.244312,8.623694 1.71013,11.643575 2.728128,1.767891 6.724556,1.081465 9.208663,-0.826176 3.757009,-3.538422 2.251817,-9.288936 1.738291,-13.795145 C 60.511008,57.580953 58.033917,53.503315 59.46875,49.53125 59.985524,48.130443 62.421894,47.778009 61.28125,46 60.146474,40.227549 54.62736,37.079301 51.026965,32.901965 50.127109,32.245632 49.011667,33.820852 48.125,34.0625 z"
         id="path16649"
         style="opacity:0.06666703;fill:#000000;fill-opacity:1;stroke:#969696;stroke-width:0;stroke-linecap:round;stroke-linejoin:round;stroke-miterlimit:4;stroke-opacity:1;stroke-dashoffset:0" />
      <path
         d="m 47.9375,33.75 c 0.102611,3.018054 4.178254,4.657644 4.71875,7.90625 3.721328,4.76658 0.946947,11.274151 2.71875,16.6875 0.561752,4.456801 3.501669,9.819123 0.6875,13.90625 -1.9586,1.776075 -4.537985,-0.07857 -4.03125,-2.5 -0.746674,-5.734959 2.418815,-13.166986 -2.3125,-17.6875 -2.728948,-1.773171 -6.879485,-0.307359 -5.34375,3.5625 1.694223,0.697775 3.658632,1.782025 3.375,4.1875 0.809742,5.490987 -2.4781,12.699323 2.21875,16.96875 5.245707,2.765551 12.597314,-1.425615 11.84375,-7.6875 C 62.366221,62.553206 58.835211,56.391169 59.65625,50 60.618918,48.232794 63.00074,47.294736 61.375,44.90625 59.798401,39.561474 54.59234,36.553031 51.125,32.5 c -1.227319,-0.518682 -2.131779,0.866905 -3.1875,1.25 z"
         id="path16653"
         style="opacity:0.06666703;fill:#000000;fill-opacity:1;stroke:#969696;stroke-width:0;stroke-linecap:round;stroke-linejoin:round;stroke-miterlimit:4;stroke-opacity:1;stroke-dashoffset:0" />
      <path
         d="m 47.75,33.46875 c -0.239424,3.525489 4.864365,6.240982 5.59375,10.28125 2.300684,5.184357 -0.04389,11.778499 2.25,17.21875 0.374563,3.320126 3.360444,9.829797 -0.9375,11.53125 -3.994183,0.277022 -1.728456,-6.305499 -2.15625,-8.53125 0.467979,-4.596539 0.85708,-13.359817 -5.9375,-12.9375 -3.90018,0.04516 -3.252788,5.794447 0,6.1875 3.212775,6.103935 -2.971769,15.800434 3.875,20.21875 C 56.655672,79.968051 63.52576,74.341858 62.125,67.75 62.683847,61.608591 58.67418,55.494202 60.25,49.625 65.119839,45.433067 58.421714,38.98 55.0625,35.9375 52.840518,33.885009 50.874166,30.114132 47.75,33.46875 z"
         id="path16657"
         style="opacity:0.06666703;fill:#000000;fill-opacity:1;stroke:#969696;stroke-width:0;stroke-linecap:round;stroke-linejoin:round;stroke-miterlimit:4;stroke-opacity:1;stroke-dashoffset:0" />
      <path
         d="m 49.90625,31.78125 c -6.752678,2.445574 1.401475,6.328642 2.09375,10.125 3.987928,5.555998 0.575985,12.970918 3.25,19.125 0.295917,3.22386 3.105748,8.874051 -0.375,11.03125 -3.558135,0.775765 -1.729846,-5.074986 -2.064505,-6.966918 0.314829,-4.955717 1.430386,-14.028789 -5.654245,-14.439332 -4.461361,-0.997605 -4.960555,6.516812 -0.96875,6.6875 3.231025,6.123586 -3.035075,16.04441 4.125,20.4375 C 56.747246,80.397482 63.872216,74.600969 62.5,67.75 62.93748,61.665777 59.29708,55.735956 60.5,49.875 65.478391,45.95813 59.320828,39.290888 55.933216,36.308216 53.957071,35.065465 52.527484,31.274436 49.90625,31.78125 z"
         id="path16661"
         style="opacity:0.06666703;fill:#000000;fill-opacity:1;stroke:#969696;stroke-width:0;stroke-linecap:round;stroke-linejoin:round;stroke-miterlimit:4;stroke-opacity:1;stroke-dashoffset:0" />
      <path
         d="m 49.71875,31.46875 c -7.016367,2.617277 1.035934,6.718906 1.96875,10.65625 3.887061,5.237352 0.639557,12.302613 3,18.15625 0.270967,3.348623 3.324016,8.943995 0.09375,11.4375 -3.113971,0.62597 -1.20862,-4.897403 -1.627905,-6.591973 0.416553,-5.086093 1.339092,-14.528023 -5.997095,-14.814277 -4.766711,-1.039754 -5.469389,7.00858 -1.125,7.375 2.719783,6.222819 -3.098556,16.124691 4.125,20.40625 6.604207,2.722584 14.173243,-3.233478 12.6875,-10.375 C 63.374385,61.6896 59.58931,55.735969 60.875,49.96875 65.770012,45.88694 59.73128,39.114338 56.183216,36.058216 54.105992,34.702119 52.569821,30.710028 49.71875,31.46875 z"
         id="path16665"
         style="opacity:0.06666703;fill:#000000;fill-opacity:1;stroke:#969696;stroke-width:0;stroke-linecap:round;stroke-linejoin:round;stroke-miterlimit:4;stroke-opacity:1;stroke-dashoffset:0" />
      <path
         d="m 49.53125,31.15625 c -6.72949,2.394263 -0.258979,6.686353 1.40625,10.1875 4.283667,5.496364 1.072056,12.770714 3.40625,19.03125 0.302402,3.253941 3.164984,8.563796 0.28125,11.03125 -2.462692,0.146261 -0.666794,-4.692547 -1.127005,-6.279418 0.542187,-5.317334 1.202995,-14.876384 -6.341745,-15.189332 -5.269842,-0.935032 -5.798583,7.508671 -1.28125,8.15625 2.150507,6.314026 -3.261159,16.590688 4.5,20.46875 6.875952,2.562025 14.224972,-3.721912 12.84375,-10.84375 0.354534,-5.882315 -3.010176,-11.859698 -2.03125,-17.5625 5.145661,-4.596027 -1.56063,-11.629402 -5.375,-14.96875 -1.901921,-1.362526 -3.495468,-5.041834 -6.28125,-4.03125 z"
         id="path16669"
         style="opacity:0.06666703;fill:#000000;fill-opacity:1;stroke:#969696;stroke-width:0;stroke-linecap:round;stroke-linejoin:round;stroke-miterlimit:4;stroke-opacity:1;stroke-dashoffset:0" />
      <path
         d="m 49.34375,30.84375 c -6.877491,2.501394 -0.768191,7.101347 1.25,10.625 2.799274,2.810882 2.541836,9.342374 2.125,11.25 -2.413158,-5.06296 -12.390878,-3.872921 -10.125,2.90625 1.109935,2.481809 4.510918,2.121615 3.46875,5.875 -0.180275,5.822799 -2.473451,16.219376 5.625,17.75 C 58.909015,80.865777 65.001616,73.989199 63.53125,67 63.84821,61.378557 60.586803,55.809251 61.5,50.34375 c 5.288697,-4.708007 -1.503447,-12.015968 -5.40625,-15.4375 -1.97871,-1.463649 -3.769381,-5.370485 -6.75,-4.0625 z m 4.875,30.4375 c 0.128006,2.749056 2.777978,7.74616 0.21875,9.78125 -1.674896,-1.365096 -0.112359,-5.802146 -0.456563,-8.030306 0.188581,-0.0083 -0.168804,-3.446164 0.237813,-1.750944 z"
         id="path16673"
         style="opacity:0.06666703;fill:#000000;fill-opacity:1;stroke:#969696;stroke-width:0;stroke-linecap:round;stroke-linejoin:round;stroke-miterlimit:4;stroke-opacity:1;stroke-dashoffset:0" />
    </g>
    <g
       transform="matrix(0.83958963,0,0,0.83958963,-791.56761,250.51123)"
       id="g16527"
       style="fill:#ffffff;fill-opacity:1;display:inline">
      <path
         d="m 24.706544,24.056971 c -2.199431,0 -3.299147,1.099715 -3.299147,3.299146 0,2.249394 0.549858,43.878649 0.549858,43.933635 0,5.003705 -3.299147,5.003705 -3.299147,5.003705 l 0,4.94872 34.641039,0 0,-4.94872 c 0,0 -3.299147,-0.109971 -3.299147,-5.058691 l 0,-33.541323 0,-10.337326 c 0,-2.244471 -1.099715,-3.299146 -3.299146,-3.299146 l -21.99431,0 z m 1.649573,3.739032 18.695164,0 0,16.495733 -18.695164,0 0,-16.495733 z"
         id="rect2907-0"
         style="fill:#ffffff;fill-opacity:1;stroke:#969696;stroke-width:0;stroke-linecap:round;stroke-linejoin:round;stroke-miterlimit:4;stroke-opacity:1;stroke-dashoffset:0" />
      <path
         d="m 61.547013,37.253557 c -1.649573,-2.74929 -3.299147,-6.598293 -3.299147,-6.598293 l -4.398862,-4.94872 2.749289,-1.649573 4.398862,4.398862 4.94872,4.948719 c 2.199431,3.299147 2.199431,3.299147 3.299146,7.698009 -5.498577,3.299146 -2.199431,8.797724 -1.099715,16.495732 1.154341,8.080389 3.299146,18.695164 -8.797724,18.695164 C 47.250711,76.293457 59.89744,51 50,51 c 0,-1.897986 0,-2.199431 0,-3.849004 14.846159,-3.849004 2.199431,25.293457 10.447297,25.293457 6.323364,0 5.387894,-7.041031 3.299147,-15.396017 -2.749289,-10.997155 -0.549858,-17.04559 -2.199431,-19.794879 z"
         id="rect2916-0"
         style="fill:#ffffff;fill-opacity:1;stroke:#969696;stroke-width:0;stroke-linecap:round;stroke-linejoin:round;stroke-miterlimit:4;stroke-opacity:1;stroke-dashoffset:0" />
    </g>
  </g>
</svg>
