<?xml version="1.0" encoding="UTF-8" standalone="no"?>
<!-- Created with Inkscape (http://www.inkscape.org/) -->

<svg
   xmlns:dc="http://purl.org/dc/elements/1.1/"
   xmlns:cc="http://creativecommons.org/ns#"
   xmlns:rdf="http://www.w3.org/1999/02/22-rdf-syntax-ns#"
   xmlns:svg="http://www.w3.org/2000/svg"
   xmlns="http://www.w3.org/2000/svg"
   xmlns:sodipodi="http://sodipodi.sourceforge.net/DTD/sodipodi-0.dtd"
   xmlns:inkscape="http://www.inkscape.org/namespaces/inkscape"
   width="64"
   height="64"
   id="svg4836"
   version="1.1"
   inkscape:version="0.48.4 r9939"
   sodipodi:docname="state_good.svg">
  <defs
     id="defs4838" />
  <sodipodi:namedview
     id="base"
     pagecolor="#ffffff"
     bordercolor="#666666"
     borderopacity="1.0"
     inkscape:pageopacity="0.0"
     inkscape:pageshadow="2"
     inkscape:zoom="15.839192"
     inkscape:cx="30.736214"
     inkscape:cy="25.840111"
     inkscape:document-units="px"
     inkscape:current-layer="layer1"
     showgrid="true"
     inkscape:window-width="2880"
     inkscape:window-height="1733"
     inkscape:window-x="-12"
     inkscape:window-y="32"
     inkscape:window-maximized="1">
    <inkscape:grid
       type="xygrid"
       id="grid4844"
       empspacing="5"
       visible="true"
       enabled="true"
       snapvisiblegridlinesonly="true" />
  </sodipodi:namedview>
  <metadata
     id="metadata4841">
    <rdf:RDF>
      <cc:Work
         rdf:about="">
        <dc:format>image/svg+xml</dc:format>
        <dc:type
           rdf:resource="http://purl.org/dc/dcmitype/StillImage" />
        <dc:title></dc:title>
      </cc:Work>
    </rdf:RDF>
  </metadata>
  <g
     inkscape:label="Layer 1"
     inkscape:groupmode="layer"
     id="layer1"
     transform="translate(0,-988.36218)">
    <g
       id="g5844"
       transform="translate(0,-8.7996914e-6)">
      <path
         style="font-size:medium;font-style:normal;font-variant:normal;font-weight:normal;font-stretch:normal;text-indent:0;text-align:start;text-decoration:none;line-height:normal;letter-spacing:normal;word-spacing:normal;text-transform:none;direction:ltr;block-progression:tb;writing-mode:lr-tb;text-anchor:start;baseline-shift:baseline;opacity:0.06666703;color:#000000;fill:#000000;fill-opacity:1;stroke:none;stroke-width:4.0999999;marker:none;visibility:visible;display:inline;overflow:visible;enable-background:accumulate;font-family:Sans;-inkscape-font-specification:Sans"
         d="m 48.84375,1026.75 c -5.119916,7.5266 -15.908602,14.9823 -24.96875,8.9688 -3.822479,-1.9368 -6.155429,-6.4508 -9.0625,-8.9063 -1.258858,1.6907 3.075089,4.3121 3.8125,5.9687 6.070118,7.5227 17.510894,8.0958 24.5,1.5938 1.97746,-2.2363 6.322197,-4.6493 6.3125,-7.5625 -0.180958,-0.096 -0.398131,-0.127 -0.59375,-0.062 z"
         id="path5846"
         inkscape:connector-curvature="0" />
      <path
         style="font-size:medium;font-style:normal;font-variant:normal;font-weight:normal;font-stretch:normal;text-indent:0;text-align:start;text-decoration:none;line-height:normal;letter-spacing:normal;word-spacing:normal;text-transform:none;direction:ltr;block-progression:tb;writing-mode:lr-tb;text-anchor:start;baseline-shift:baseline;opacity:0.06666703;color:#000000;fill:#000000;fill-opacity:1;stroke:none;stroke-width:4.0999999;marker:none;visibility:visible;display:inline;overflow:visible;enable-background:accumulate;font-family:Sans;-inkscape-font-specification:Sans"
         d="m 48.96875,1026.5 c -5.097938,6.4915 -13.830686,14.0756 -22.78125,10.1562 -4.900446,-1.7886 -7.882287,-6.7264 -11.21875,-10.0624 -2.331631,1.1795 2.131762,4.0251 2.65625,5.4062 5.718187,7.6854 17.110152,9.6582 24.5625,3.3438 2.562089,-2.4353 6.933173,-5.009 7.53125,-8.5 -0.142617,-0.252 -0.481684,-0.4001 -0.75,-0.3438 z"
         id="path5850"
         inkscape:connector-curvature="0" />
      <path
         style="font-size:medium;font-style:normal;font-variant:normal;font-weight:normal;font-stretch:normal;text-indent:0;text-align:start;text-decoration:none;line-height:normal;letter-spacing:normal;word-spacing:normal;text-transform:none;direction:ltr;block-progression:tb;writing-mode:lr-tb;text-anchor:start;baseline-shift:baseline;opacity:0.06666703;color:#000000;fill:#000000;fill-opacity:1;stroke:none;stroke-width:4.0999999;marker:none;visibility:visible;display:inline;overflow:visible;enable-background:accumulate;font-family:Sans;-inkscape-font-specification:Sans"
         d="m 48.9375,1026.2812 c -4.955305,5.7044 -11.852246,12.9016 -20.5,10.875 -6.023692,-1.1926 -9.658434,-6.8333 -13.375,-10.8124 -2.99934,1.0614 1.709448,4.424 2.375,5.7812 5.755681,7.7424 17.413959,9.8208 24.875,3.375 2.594428,-2.4582 7.141508,-5.0476 7.625,-8.7188 -0.19655,-0.3371 -0.621423,-0.5811 -1,-0.5 z"
         id="path5854"
         inkscape:connector-curvature="0" />
      <path
         style="font-size:medium;font-style:normal;font-variant:normal;font-weight:normal;font-stretch:normal;text-indent:0;text-align:start;text-decoration:none;line-height:normal;letter-spacing:normal;word-spacing:normal;text-transform:none;direction:ltr;block-progression:tb;writing-mode:lr-tb;text-anchor:start;baseline-shift:baseline;opacity:0.06666703;color:#000000;fill:#000000;fill-opacity:1;stroke:none;stroke-width:4.0999999;marker:none;visibility:visible;display:inline;overflow:visible;enable-background:accumulate;font-family:Sans;-inkscape-font-specification:Sans"
         d="m 48.96875,1026.0625 c -3.034202,2.3747 -5.27652,6.4467 -8.96875,8.375 -6.162329,4.8056 -15.423732,3.0704 -20.1875,-2.9375 -2.201861,-1.075 -2.795838,-6.1749 -5.625,-5.0625 -1.455277,2.5452 2.928032,4.73 3.90625,6.7187 5.789001,7.0218 16.668389,8.6668 23.8125,2.9063 3.054864,-2.4707 6.939634,-5.219 8.34375,-9 -0.08178,-0.6104 -0.678548,-1.0861 -1.28125,-1 z"
         id="path5858"
         inkscape:connector-curvature="0" />
      <path
         style="font-size:medium;font-style:normal;font-variant:normal;font-weight:normal;font-stretch:normal;text-indent:0;text-align:start;text-decoration:none;line-height:normal;letter-spacing:normal;word-spacing:normal;text-transform:none;direction:ltr;block-progression:tb;writing-mode:lr-tb;text-anchor:start;baseline-shift:baseline;opacity:0.06666703;color:#000000;fill:#000000;fill-opacity:1;stroke:none;stroke-width:4.0999999;marker:none;visibility:visible;display:inline;overflow:visible;enable-background:accumulate;font-family:Sans;-inkscape-font-specification:Sans"
         d="m 48.78125,1025.9062 c -2.376626,1.5636 -3.895829,5.0152 -6.583121,6.6357 -5.1156,4.8835 -13.69862,6.3129 -19.260629,1.4581 -3.209088,-1.9342 -4.964306,-5.8131 -7.59375,-8 -2.489867,-0.3709 -1.895996,2.9536 -0.275428,3.8617 4.70927,7.1497 14.0535,12.5898 22.535831,8.7624 5.213912,-2.255 10.108221,-6.3386 12.864597,-11.2491 0.06985,-0.9301 -0.766439,-1.7681 -1.6875,-1.4688 z"
         id="path5862"
         inkscape:connector-curvature="0" />
      <path
         style="font-size:medium;font-style:normal;font-variant:normal;font-weight:normal;font-stretch:normal;text-indent:0;text-align:start;text-decoration:none;line-height:normal;letter-spacing:normal;word-spacing:normal;text-transform:none;direction:ltr;block-progression:tb;writing-mode:lr-tb;text-anchor:start;baseline-shift:baseline;opacity:0.06666703;color:#000000;fill:#000000;fill-opacity:1;stroke:none;stroke-width:4.0999999;marker:none;visibility:visible;display:inline;overflow:visible;enable-background:accumulate;font-family:Sans;-inkscape-font-specification:Sans"
         d="m 48.8125,1025.6562 c -1.920846,0.7661 -2.562518,3.2972 -4.271796,4.4593 -4.500758,4.808 -11.836843,8.8277 -18.365144,5.5752 -4.554231,-1.9615 -7.428487,-6.1029 -10.42556,-9.7845 -1.989398,-1.0139 -3.239603,1.9978 -1.560651,3.1324 4.346692,6.4733 11.749336,12.406 19.998151,10.8052 6.876903,-1.4155 12.684727,-6.4007 16.4375,-12.125 0.367253,-1.1081 -0.657288,-2.3023 -1.8125,-2.0626 z"
         id="path5866"
         inkscape:connector-curvature="0" />
      <path
         style="font-size:medium;font-style:normal;font-variant:normal;font-weight:normal;font-stretch:normal;text-indent:0;text-align:start;text-decoration:none;line-height:normal;letter-spacing:normal;word-spacing:normal;text-transform:none;direction:ltr;block-progression:tb;writing-mode:lr-tb;text-anchor:start;baseline-shift:baseline;opacity:0.06666703;color:#000000;fill:#000000;fill-opacity:1;stroke:none;stroke-width:4.0999999;marker:none;visibility:visible;display:inline;overflow:visible;enable-background:accumulate;font-family:Sans;-inkscape-font-specification:Sans"
         d="m 48.8125,1025.4375 c -1.471335,0.2832 -1.860535,1.9201 -2.9375,2.9375 -3.85113,4.2711 -8.856088,8.3883 -14.901518,8.2705 -5.808273,-0.2227 -10.313662,-4.6136 -13.557972,-9.062 -0.734506,-0.9439 -1.335413,-2.4055 -2.82176,-2.021 -1.551707,0.2072 -1.861312,2.4079 -0.714806,3.3943 3.719793,5.3374 8.978196,10.4876 15.802679,11.224 6.333376,0.7318 12.250603,-2.6435 16.601959,-6.8995 1.676025,-1.7682 3.679878,-3.5019 4.591418,-5.7188 0.21336,-1.205 -0.795292,-2.3308 -2.0625,-2.125 z"
         id="path5870"
         inkscape:connector-curvature="0" />
      <path
         style="font-size:medium;font-style:normal;font-variant:normal;font-weight:normal;font-stretch:normal;text-indent:0;text-align:start;text-decoration:none;line-height:normal;letter-spacing:normal;word-spacing:normal;text-transform:none;direction:ltr;block-progression:tb;writing-mode:lr-tb;text-anchor:start;baseline-shift:baseline;opacity:0.06666703;color:#000000;fill:#000000;fill-opacity:1;stroke:none;stroke-width:4.0999999;marker:none;visibility:visible;display:inline;overflow:visible;enable-background:accumulate;font-family:Sans;-inkscape-font-specification:Sans"
         d="m 14.75,1025.2997 a 2.050205,2.050205 0 0 0 -1.4375,3.2187 c 4.42867,6.5128 9.041496,10.0049 13.59375,11.3438 4.552254,1.3389 8.864163,0.4397 12.375,-1.2813 7.021674,-3.442 11.40625,-10.0625 11.40625,-10.0625 a 2.050205,2.050205 0 1 0 -3.375,-2.3125 c 0,0 -4.115424,5.8795 -9.84375,8.6875 -2.864163,1.404 -5.989754,2.0674 -9.40625,1.0625 -3.416496,-1.0048 -7.30367,-3.7627 -11.375,-9.75 a 2.050205,2.050205 0 0 0 -1.9375,-0.9062 z"
         id="path5874"
         inkscape:connector-curvature="0" />
      <path
         style="font-size:medium;font-style:normal;font-variant:normal;font-weight:normal;font-stretch:normal;text-indent:0;text-align:start;text-decoration:none;line-height:normal;letter-spacing:normal;word-spacing:normal;text-transform:none;direction:ltr;block-progression:tb;writing-mode:lr-tb;text-anchor:start;baseline-shift:baseline;opacity:0.06666703;color:#000000;fill:#000000;fill-opacity:1;stroke:none;stroke-width:4.0999999;marker:none;visibility:visible;display:inline;overflow:visible;enable-background:accumulate;font-family:Sans;-inkscape-font-specification:Sans"
         d="m 48.71875,1025 c -1.73847,0.3702 -2.144988,2.3222 -3.450998,3.4049 -3.662593,3.9829 -8.249842,7.7173 -13.915073,7.8139 -5.789984,-0.045 -10.212003,-4.3332 -13.495271,-8.7145 -0.719753,-1.2224 -1.867537,-2.9664 -3.607408,-2.3168 -1.657837,0.5249 -2.006709,2.8266 -0.752653,3.9928 3.775103,5.4017 9.089641,10.5669 15.908903,11.4135 6.94174,0.8943 13.387814,-3.0373 18.03932,-7.8384 1.346668,-1.5619 2.998035,-3.0999 3.83568,-4.9429 0.426887,-1.5566 -0.996345,-3.0801 -2.5625,-2.8125 z"
         id="path5876"
         inkscape:connector-curvature="0" />
      <path
         style="font-size:medium;font-style:normal;font-variant:normal;font-weight:normal;font-stretch:normal;text-indent:0;text-align:start;text-decoration:none;line-height:normal;letter-spacing:normal;word-spacing:normal;text-transform:none;direction:ltr;block-progression:tb;writing-mode:lr-tb;text-anchor:start;baseline-shift:baseline;opacity:0.06666703;color:#000000;fill:#000000;fill-opacity:1;stroke:none;stroke-width:4.0999999;marker:none;visibility:visible;display:inline;overflow:visible;enable-background:accumulate;font-family:Sans;-inkscape-font-specification:Sans"
         d="m 48.6875,1024.7812 c -2.414277,0.7587 -3.10879,3.7499 -5.15625,5.0938 -4.421699,4.7966 -11.837383,8.2287 -17.9375,4.5938 -4.024659,-2.1255 -6.434569,-5.8708 -9.28125,-9.2188 -2.376313,-1.6691 -5.174572,1.8992 -3.095518,3.8806 4.536267,6.9122 12.342502,13.2952 21.126768,11.5256 7.180934,-1.3909 13.114154,-6.6271 17.0625,-12.5312 0.699365,-1.7364 -0.888208,-3.6523 -2.71875,-3.3438 z"
         id="path5880"
         inkscape:connector-curvature="0" />
      <path
         style="font-size:medium;font-style:normal;font-variant:normal;font-weight:normal;font-stretch:normal;text-indent:0;text-align:start;text-decoration:none;line-height:normal;letter-spacing:normal;word-spacing:normal;text-transform:none;direction:ltr;block-progression:tb;writing-mode:lr-tb;text-anchor:start;baseline-shift:baseline;opacity:0.06666703;color:#000000;fill:#000000;fill-opacity:1;stroke:none;stroke-width:4.0999999;marker:none;visibility:visible;display:inline;overflow:visible;enable-background:accumulate;font-family:Sans;-inkscape-font-specification:Sans"
         d="m 48.84375,1024.5625 c -3.040064,0.7857 -3.930708,4.7243 -6.670101,6.2997 -5.004483,5.2226 -13.692047,6.8988 -19.142399,1.5753 -3.111096,-1.9455 -4.289726,-5.8891 -7.28125,-7.6875 -3.154443,-0.9486 -4.677763,3.5844 -2.125,5.3438 4.987982,7.6614 14.658416,13.6922 23.8125,9.9374 5.864391,-2.2197 11.161252,-6.7693 14.25,-12.1562 0.526522,-1.7311 -1.114612,-3.5193 -2.84375,-3.3125 z"
         id="path5884"
         inkscape:connector-curvature="0" />
      <path
         style="font-size:medium;font-style:normal;font-variant:normal;font-weight:normal;font-stretch:normal;text-indent:0;text-align:start;text-decoration:none;line-height:normal;letter-spacing:normal;word-spacing:normal;text-transform:none;direction:ltr;block-progression:tb;writing-mode:lr-tb;text-anchor:start;baseline-shift:baseline;opacity:0.06666703;color:#000000;fill:#000000;fill-opacity:1;stroke:none;stroke-width:4.0999999;marker:none;visibility:visible;display:inline;overflow:visible;enable-background:accumulate;font-family:Sans;-inkscape-font-specification:Sans"
         d="m 48.59375,1024.375 c -3.557159,1.6306 -4.90092,6.0778 -8.625,8 -5.505888,4.8959 -14.340478,3.7918 -18.793592,-1.9498 -2.408485,-1.7802 -4.009963,-7.7907 -7.893908,-5.4252 -3.4605688,3.1806 1.868124,6.9361 3.625,9.4062 6.1135,7.3457 17.609051,9.2907 25.34375,3.4688 3.659871,-2.8709 8.472784,-6.0039 9.71875,-10.6875 0.01622,-1.7366 -1.663729,-3.1256 -3.375,-2.8125 z"
         id="path5888"
         inkscape:connector-curvature="0" />
      <path
         style="font-size:medium;font-style:normal;font-variant:normal;font-weight:normal;font-stretch:normal;text-indent:0;text-align:start;text-decoration:none;line-height:normal;letter-spacing:normal;word-spacing:normal;text-transform:none;direction:ltr;block-progression:tb;writing-mode:lr-tb;text-anchor:start;baseline-shift:baseline;opacity:0.06666703;color:#000000;fill:#000000;fill-opacity:1;stroke:none;stroke-width:4.0999999;marker:none;visibility:visible;display:inline;overflow:visible;enable-background:accumulate;font-family:Sans;-inkscape-font-specification:Sans"
         d="m 48.5625,1024.1562 c -3.934299,1.9251 -5.804114,7.0425 -10.09375,8.9688 -7.148731,5.2646 -16.18312,0.276 -20.1875,-6.5 -1.175032,-4.0909 -7.696906,-2.3004 -6.25,1.75 5.007887,9.2818 16.618541,16.7043 27.0625,11.5 5.226891,-2.8446 10.935163,-6.8353 13.09375,-12.5 0.140262,-1.9006 -1.698299,-3.5669 -3.625,-3.2188 z"
         id="path5892"
         inkscape:connector-curvature="0" />
      <path
         style="font-size:medium;font-style:normal;font-variant:normal;font-weight:normal;font-stretch:normal;text-indent:0;text-align:start;text-decoration:none;line-height:normal;letter-spacing:normal;word-spacing:normal;text-transform:none;direction:ltr;block-progression:tb;writing-mode:lr-tb;text-anchor:start;baseline-shift:baseline;opacity:0.06666703;color:#000000;fill:#000000;fill-opacity:1;stroke:none;stroke-width:4.0999999;marker:none;visibility:visible;display:inline;overflow:visible;enable-background:accumulate;font-family:Sans;-inkscape-font-specification:Sans"
         d="m 48.53125,1023.9375 c -4.102857,1.8779 -5.76649,7.1326 -10.1875,9 -7.018434,5.2193 -15.968376,0.2423 -19.875,-6.4375 -1.287479,-4.291 -8.184455,-2.3458 -6.625,1.9375 4.997991,9.4161 16.811919,16.9139 27.34375,11.625 5.264478,-2.836 11.126305,-6.9254 13.21875,-12.6875 0.129872,-2.0492 -1.837677,-3.7893 -3.875,-3.4375 z"
         id="path5896"
         inkscape:connector-curvature="0" />
      <path
         style="font-size:medium;font-style:normal;font-variant:normal;font-weight:normal;font-stretch:normal;text-indent:0;text-align:start;text-decoration:none;line-height:normal;letter-spacing:normal;word-spacing:normal;text-transform:none;direction:ltr;block-progression:tb;writing-mode:lr-tb;text-anchor:start;baseline-shift:baseline;opacity:0.06666703;color:#000000;fill:#000000;fill-opacity:1;stroke:none;stroke-width:4.0999999;marker:none;visibility:visible;display:inline;overflow:visible;enable-background:accumulate;font-family:Sans;-inkscape-font-specification:Sans"
         d="m 48.6875,1023.7188 c -4.175126,1.379 -5.712258,6.9885 -10,8.75 -6.374761,5.1474 -15.302578,1.3634 -19.3125,-5.0938 -1.23796,-6.0081 -10.5614075,-3.2271 -7.28125,2.0312 5.312644,9.0512 16.892159,16.0589 27.1875,10.8438 5.381821,-2.8323 11.1263,-7.0387 13.34375,-12.7812 0.179554,-2.1233 -1.828819,-4.0497 -3.9375,-3.75 z"
         id="path5900"
         inkscape:connector-curvature="0" />
    </g>
    <path
       inkscape:connector-curvature="0"
       id="path5842"
       d="m 14.75,1025.2997 a 2.050205,2.050205 0 0 0 -1.4375,3.2187 c 4.42867,6.5128 9.041496,10.0049 13.59375,11.3438 4.552254,1.3389 8.864163,0.4397 12.375,-1.2813 7.021674,-3.442 11.40625,-10.0625 11.40625,-10.0625 a 2.050205,2.050205 0 1 0 -3.375,-2.3125 c 0,0 -4.115424,5.8795 -9.84375,8.6875 -2.864163,1.404 -5.989754,2.0674 -9.40625,1.0625 -3.416496,-1.0048 -7.30367,-3.7627 -11.375,-9.75 a 2.050205,2.050205 0 0 0 -1.9375,-0.9062 z"
       style="font-size:medium;font-style:normal;font-variant:normal;font-weight:normal;font-stretch:normal;text-indent:0;text-align:start;text-decoration:none;line-height:normal;letter-spacing:normal;word-spacing:normal;text-transform:none;direction:ltr;block-progression:tb;writing-mode:lr-tb;text-anchor:start;baseline-shift:baseline;color:#000000;fill:#000000;fill-opacity:1;stroke:none;stroke-width:4.0999999;marker:none;visibility:visible;display:inline;overflow:visible;enable-background:accumulate;font-family:Sans;-inkscape-font-specification:Sans" />
    <g
       id="g5782">
      <path
         style="opacity:0.06666703;fill:#000000;fill-opacity:1;stroke:none"
         d="m 44.6875,1002.8934 c -5.234196,0.2719 -3.12207,8.8841 1.65625,6.6875 3.652283,-1.4395 2.285145,-7.1185 -1.65625,-6.6875 z"
         id="path5784"
         inkscape:connector-curvature="0" />
      <path
         style="opacity:0.06666703;fill:#000000;fill-opacity:1;stroke:none"
         d="m 44.65625,1002.6747 c -4.830597,0.194 -4.028373,8.1464 0.75,7.375 4.793125,-0.5564 4.102508,-7.7816 -0.75,-7.375 z"
         id="path5788"
         inkscape:connector-curvature="0" />
      <path
         style="opacity:0.06666703;fill:#000000;fill-opacity:1;stroke:none"
         d="m 44.625,1002.4559 c -5.375115,0.2858 -3.986714,9.1492 1.25,7.75 4.686247,-1.0205 3.565719,-8.2826 -1.25,-7.75 z"
         id="path5792"
         inkscape:connector-curvature="0" />
      <path
         style="opacity:0.06666703;fill:#000000;fill-opacity:1;stroke:none"
         d="m 44.59375,1002.2372 c -5.308294,0.2368 -4.518556,9.0814 0.84375,8.25 5.320302,-0.572 4.624852,-8.7281 -0.84375,-8.25 z"
         id="path5796"
         inkscape:connector-curvature="0" />
      <path
         style="opacity:0.06666703;fill:#000000;fill-opacity:1;stroke:none"
         d="m 44.15625,1002.0809 c -4.785996,0.74 -4.460369,8.2885 0.375,8.625 4.49164,0.7332 6.79222,-6.2217 2.5,-8.1875 -0.913714,-0.5261 -1.893889,-0.578 -2.875,-0.4375 z"
         id="path5800"
         inkscape:connector-curvature="0" />
      <path
         style="opacity:0.06666703;fill:#000000;fill-opacity:1;stroke:none"
         d="m 44.5625,1001.8309 c -4.12809,0.1265 -5.668628,6.2368 -2.09375,8.3438 3.333878,2.4779 8.320598,-1.3083 6.90625,-5.1563 -0.626418,-2.0478 -2.693193,-3.4515 -4.8125,-3.1875 z"
         id="path5804"
         inkscape:connector-curvature="0" />
      <path
         style="opacity:0.06666703;fill:#000000;fill-opacity:1;stroke:none"
         d="m 44.53125,1001.6122 c -3.30234,0.1892 -5.36985,4.1026 -3.75,7.0312 1.163004,2.3373 4.612203,3.3112 6.875,1.6875 2.416639,-1.3802 2.866,-5.4471 0.71875,-7.3437 -0.925178,-0.9903 -2.417313,-1.5273 -3.84375,-1.375 z"
         id="path5808"
         inkscape:connector-curvature="0" />
      <path
         transform="translate(30,992.36218)"
         style="fill:#000000;fill-opacity:1;stroke:none;opacity:0.066667"
         d="m 20,14 c 0,2.761424 -2.238576,5 -5,5 -2.761424,0 -5,-2.238576 -5,-5 0,-2.761424 2.238576,-5 5,-5 2.761424,0 5,2.238576 5,5 z"
         id="path5812" />
      <path
         style="opacity:0.06666703;fill:#000000;fill-opacity:1;stroke:none"
         d="m 44.5,1001.1747 c -3.564842,0.1993 -5.926589,4.5402 -4.09375,7.6562 1.38488,2.8286 5.582449,3.6727 7.9375,1.5313 2.669603,-2.0509 2.376231,-6.5917 -0.4375,-8.3438 -1.010109,-0.6385 -2.201251,-0.9857 -3.40625,-0.8437 z"
         id="path5814"
         inkscape:connector-curvature="0" />
      <path
         style="opacity:0.06666703;fill:#000000;fill-opacity:1;stroke:none"
         d="m 44.46875,1000.9559 c -4.399676,0.1927 -6.610682,6.3456 -3.28125,9.25 3.079548,3.4496 9.399619,0.8303 9.245484,-3.7402 0.123606,-3.1527 -2.816142,-5.89 -5.964234,-5.5098 z"
         id="path5818"
         inkscape:connector-curvature="0" />
      <path
         style="opacity:0.06666703;fill:#000000;fill-opacity:1;stroke:none"
         d="m 44.46875,1000.7372 c -5.412537,0.2022 -7.026363,8.3896 -2.09375,10.625 4.642255,2.7625 10.400541,-3.1388 7.59375,-7.7188 -1.097661,-1.9371 -3.267511,-3.1315 -5.5,-2.9062 z"
         id="path5822"
         inkscape:connector-curvature="0" />
      <path
         style="opacity:0.06666703;fill:#000000;fill-opacity:1;stroke:none"
         d="m 44.4375,1000.5497 c -6.200734,0.2093 -7.11686,9.9392 -1.15625,11.4375 5.881728,2.0992 10.398,-6.5011 5.4375,-10.1563 -1.18191,-0.9661 -2.740574,-1.4637 -4.28125,-1.2812 z"
         id="path5826"
         inkscape:connector-curvature="0" />
      <path
         style="opacity:0.06666703;fill:#000000;fill-opacity:1;stroke:none"
         d="m 44.4375,1000.3309 c -6.448215,0.1954 -7.438392,10.3551 -1.1875,11.8438 6.354852,2.3097 10.949688,-7.469 5.09375,-10.875 -1.116778,-0.8117 -2.543524,-1.0897 -3.90625,-0.9688 z"
         id="path5830"
         inkscape:connector-curvature="0" />
      <path
         style="opacity:0.06666703;fill:#000000;fill-opacity:1;stroke:none"
         d="m 44.40625,1000.1122 c -6.671681,0.2289 -7.690865,10.7139 -1.21875,12.2812 6.2452,2.2576 11.188858,-7.0011 5.78125,-10.9062 -1.258083,-1.0503 -2.932612,-1.55014 -4.5625,-1.375 z"
         id="path5834"
         inkscape:connector-curvature="0" />
      <path
         style="opacity:0.06666703;fill:#000000;fill-opacity:1;stroke:none"
         d="m 44.40625,999.89343 c -6.915733,0.23357 -7.980135,11.06637 -1.28125,12.71877 6.462001,2.313 11.581196,-7.268 5.96875,-11.2813 -1.280944,-1.0977 -3.011866,-1.6112 -4.6875,-1.43747 z"
         id="path5838"
         inkscape:connector-curvature="0" />
    </g>
    <g
       id="g5719">
      <path
         style="opacity:0.06666703;fill:#00002b;fill-opacity:1;stroke:none"
         d="m 18.6875,1002.8934 c -5.234196,0.2719 -3.12207,8.8841 1.65625,6.6875 3.652283,-1.4395 2.285145,-7.1185 -1.65625,-6.6875 z"
         id="path5721"
         inkscape:connector-curvature="0" />
      <path
         style="opacity:0.06666703;fill:#00002b;fill-opacity:1;stroke:none"
         d="m 18.65625,1002.6747 c -4.830597,0.194 -4.028373,8.1464 0.75,7.375 4.793125,-0.5564 4.102508,-7.7816 -0.75,-7.375 z"
         id="path5725"
         inkscape:connector-curvature="0" />
      <path
         style="opacity:0.06666703;fill:#00002b;fill-opacity:1;stroke:none"
         d="m 18.625,1002.4559 c -5.375115,0.2858 -3.986714,9.1492 1.25,7.75 4.686247,-1.0205 3.565719,-8.2826 -1.25,-7.75 z"
         id="path5729"
         inkscape:connector-curvature="0" />
      <path
         style="opacity:0.06666703;fill:#00002b;fill-opacity:1;stroke:none"
         d="m 18.59375,1002.2372 c -5.308294,0.2368 -4.518556,9.0814 0.84375,8.25 5.320302,-0.572 4.624852,-8.7281 -0.84375,-8.25 z"
         id="path5733"
         inkscape:connector-curvature="0" />
      <path
         style="opacity:0.06666703;fill:#00002b;fill-opacity:1;stroke:none"
         d="m 18.15625,1002.0809 c -4.785996,0.74 -4.460369,8.2885 0.375,8.625 4.49164,0.7332 6.79222,-6.2217 2.5,-8.1875 -0.913714,-0.5261 -1.893889,-0.578 -2.875,-0.4375 z"
         id="path5737"
         inkscape:connector-curvature="0" />
      <path
         style="opacity:0.06666703;fill:#00002b;fill-opacity:1;stroke:none"
         d="m 18.5625,1001.8309 c -4.12809,0.1265 -5.668628,6.2368 -2.09375,8.3438 3.333878,2.4779 8.320598,-1.3083 6.90625,-5.1563 -0.626418,-2.0478 -2.693193,-3.4515 -4.8125,-3.1875 z"
         id="path5741"
         inkscape:connector-curvature="0" />
      <path
         style="opacity:0.06666703;fill:#00002b;fill-opacity:1;stroke:none"
         d="m 18.53125,1001.6122 c -3.30234,0.1892 -5.36985,4.1026 -3.75,7.0312 1.163004,2.3373 4.612203,3.3112 6.875,1.6875 2.416639,-1.3802 2.866,-5.4471 0.71875,-7.3437 -0.925178,-0.9903 -2.417313,-1.5273 -3.84375,-1.375 z"
         id="path5745"
         inkscape:connector-curvature="0" />
      <path
         transform="translate(4,992.36218)"
         style="fill:#00002b;fill-opacity:1;stroke:none;opacity:0.066667"
         d="m 20,14 c 0,2.761424 -2.238576,5 -5,5 -2.761424,0 -5,-2.238576 -5,-5 0,-2.761424 2.238576,-5 5,-5 2.761424,0 5,2.238576 5,5 z"
         id="path5749" />
      <path
         style="opacity:0.06666703;fill:#00002b;fill-opacity:1;stroke:none"
         d="m 18.5,1001.1747 c -3.564842,0.1993 -5.926589,4.5402 -4.09375,7.6562 1.38488,2.8286 5.582449,3.6727 7.9375,1.5313 2.669603,-2.0509 2.376231,-6.5917 -0.4375,-8.3438 -1.010109,-0.6385 -2.201251,-0.9857 -3.40625,-0.8437 z"
         id="path5751"
         inkscape:connector-curvature="0" />
      <path
         style="opacity:0.06666703;fill:#00002b;fill-opacity:1;stroke:none"
         d="m 18.46875,1000.9559 c -4.399676,0.1927 -6.610682,6.3456 -3.28125,9.25 3.079548,3.4496 9.399619,0.8303 9.245484,-3.7402 0.123606,-3.1527 -2.816142,-5.89 -5.964234,-5.5098 z"
         id="path5755"
         inkscape:connector-curvature="0" />
      <path
         style="opacity:0.06666703;fill:#00002b;fill-opacity:1;stroke:none"
         d="m 18.46875,1000.7372 c -5.412537,0.2022 -7.026363,8.3896 -2.09375,10.625 4.642255,2.7625 10.400541,-3.1388 7.59375,-7.7188 -1.097661,-1.9371 -3.267511,-3.1315 -5.5,-2.9062 z"
         id="path5759"
         inkscape:connector-curvature="0" />
      <path
         style="opacity:0.06666703;fill:#00002b;fill-opacity:1;stroke:none"
         d="m 18.4375,1000.5497 c -6.200734,0.2093 -7.11686,9.9392 -1.15625,11.4375 5.881728,2.0992 10.398,-6.5011 5.4375,-10.1563 -1.18191,-0.9661 -2.740574,-1.4637 -4.28125,-1.2812 z"
         id="path5763"
         inkscape:connector-curvature="0" />
      <path
         style="opacity:0.06666703;fill:#00002b;fill-opacity:1;stroke:none"
         d="m 18.4375,1000.3309 c -6.448215,0.1954 -7.438392,10.3551 -1.1875,11.8438 6.354852,2.3097 10.949688,-7.469 5.09375,-10.875 -1.116778,-0.8117 -2.543524,-1.0897 -3.90625,-0.9688 z"
         id="path5767"
         inkscape:connector-curvature="0" />
      <path
         style="opacity:0.06666703;fill:#00002b;fill-opacity:1;stroke:none"
         d="m 18.40625,1000.1122 c -6.671681,0.2289 -7.690865,10.7139 -1.21875,12.2812 6.2452,2.2576 11.188858,-7.0011 5.78125,-10.9062 -1.258083,-1.0503 -2.932612,-1.55014 -4.5625,-1.375 z"
         id="path5771"
         inkscape:connector-curvature="0" />
      <path
         style="opacity:0.06666703;fill:#00002b;fill-opacity:1;stroke:none"
         d="m 18.40625,999.89343 c -6.915733,0.23357 -7.980135,11.06637 -1.28125,12.71877 6.462001,2.313 11.581196,-7.268 5.96875,-11.2813 -1.280944,-1.0977 -3.011866,-1.6112 -4.6875,-1.43747 z"
         id="path5775"
         inkscape:connector-curvature="0" />
    </g>
    <path
       id="path5717"
       d="m 20,14 c 0,2.761424 -2.238576,5 -5,5 -2.761424,0 -5,-2.238576 -5,-5 0,-2.761424 2.238576,-5 5,-5 2.761424,0 5,2.238576 5,5 z"
       style="fill:#00002b;fill-opacity:1;stroke:none"
       transform="translate(4,992.36218)" />
    <path
       transform="translate(4,992.36218)"
       style="fill:#ffffff;fill-opacity:1;stroke:none"
       d="m 20,14 c 0,2.761424 -2.238576,5 -5,5 -2.761424,0 -5,-2.238576 -5,-5 0,-2.761424 2.238576,-5 5,-5 2.761424,0 5,2.238576 5,5 z"
       id="path5618" />
    <path
       style="font-size:medium;font-style:normal;font-variant:normal;font-weight:normal;font-stretch:normal;text-indent:0;text-align:start;text-decoration:none;line-height:normal;letter-spacing:normal;word-spacing:normal;text-transform:none;direction:ltr;block-progression:tb;writing-mode:lr-tb;text-anchor:start;baseline-shift:baseline;color:#000000;fill:#ffffff;fill-opacity:1;stroke:none;stroke-width:4.0999999;marker:none;visibility:visible;display:inline;overflow:visible;enable-background:accumulate;font-family:Sans;-inkscape-font-specification:Sans"
       d="m 14.75,1025.2997 a 2.050205,2.050205 0 0 0 -1.4375,3.2187 c 4.42867,6.5128 9.041496,10.0049 13.59375,11.3438 4.552254,1.3389 8.864163,0.4397 12.375,-1.2813 7.021674,-3.442 11.40625,-10.0625 11.40625,-10.0625 a 2.050205,2.050205 0 1 0 -3.375,-2.3125 c 0,0 -4.115424,5.8795 -9.84375,8.6875 -2.864163,1.404 -5.989754,2.0674 -9.40625,1.0625 -3.416496,-1.0048 -7.30367,-3.7627 -11.375,-9.75 a 2.050205,2.050205 0 0 0 -1.9375,-0.9062 z"
       id="path5560"
       inkscape:connector-curvature="0" />
    <path
       transform="translate(30,992.36218)"
       style="fill:#00802b;fill-opacity:1;stroke:none"
       d="m 20,14 c 0,2.761424 -2.238576,5 -5,5 -2.761424,0 -5,-2.238576 -5,-5 0,-2.761424 2.238576,-5 5,-5 2.761424,0 5,2.238576 5,5 z"
       id="path4852" />
    <path
       id="path5780"
       d="m 20,14 c 0,2.761424 -2.238576,5 -5,5 -2.761424,0 -5,-2.238576 -5,-5 0,-2.761424 2.238576,-5 5,-5 2.761424,0 5,2.238576 5,5 z"
       style="fill:#ffffff;fill-opacity:1;stroke:none"
       transform="translate(30,992.36218)" />
  </g>
</svg>
